<svg xmlns="http://www.w3.org/2000/svg" width="478" height="179" viewBox="0 0 477.6 178.6" style="enable-background:new 0 0 477.551 178.629;version:1">
<style>
  .a{
    fill:none;
    stroke-linecap:round;
    stroke-linejoin:round;
    stroke-width:0.5;
    stroke:#030303;
  }
  .b{
    clip-rule:evenodd;
    fill-rule:evenodd;
  }
</style>
  <g display="none">
    <rect x="-51.7" y="-52.4" width="765.6" height="542.2" fill="#7E7E7E"/>
  </g>
        <path style="fill: #FFF" d="M130.7 159.6c0 0-0.4-0.2-0.1-0.2 1 0.3 2 0.6 3.1 1.4 0.8 0.5 1.6 1.9 2.7 1.5 1.4-0.5 0.3-4.5-0.1-5.9 -1.6-5.6-5-10.3-8.1-14.2 -4.7-5.7-10-10.3-11.3-18.5 6.7-2.1 13.6-4.3 21.1-6 1.7-0.4 3.6-0.9 5.5-1.3 0.7-0.1 1.6-0.1 2-0.3 0.6-0.3 1.1-2.4 1.5-3.2 1-2.5 1.5-4.2 2.5-6.8 0.4-0.9 1.4-2.4 1.3-3.3 -0.1-0.9-1.4-2.2-2.2-2.9 -0.5-0.5-2.5-1.8-2.4-2.5 0.2-0.7 1.7-1.2 2.4-1.7 0.7-0.5 1.6-1.4 1.9-2.2 0.5-1.6 0.5-3.8 0.6-5.9 0.2-4.9 0.8-9.8 2.1-14 0.2-0.8 0.8-1.9 0.8-2.4 -0.1-1.1-2.1-3.5-2.8-4.3 -1-1.1-2.3-3.1-3.7-3.3 -2.2-0.4-5.8 0.4-7.7 0.8 -2.5 0.5-4.9 0.9-7.2 1.3 -4.9 0.8-10 2.2-14.8 2.1 -1.7 0-3-0.9-4.5-1.4 -1.2-0.4-2.4-0.8-3.2-1.4 -1.7-1.3-3-3.2-4.5-4.8 -1.4-1.5-3.1-3.1-4.8-4.5 -1.6-1.3-3.7-2.8-5.8-3.5 -0.7-0.3-1.4-0.3-2.6-0.4 -1.9-5.4-2.3-13-1.6-20.3 0.2-2.3 0.9-4.2 1.2-6.2 -0.4-0.5-0.8-0.9-1.3-1.3 -1.3 0.5-2.3 1.7-3.2 2.6 -6.7 6.7-11.8 15.3-14.9 25.7 -2.2-1.6-3.5-4.1-5-6.5 -1.4-2.3-2.9-4.7-4.2-7.2 -2-3.6-3.8-7.7-5-12 -0.2-0.7-0.2-1.5-0.4-2.3 -0.2-0.7-0.8-0.9-1.2-1.5 -2.3 1.7-3 4.7-4.1 7.2 -1.1 2.6-2.3 5.2-3.6 7.6 -2.7 5-5 10.3-7.2 15.5 -1 2.4-2.3 5.2-3.4 7.9 -1.1 2.7-2.1 6-1.6 9.3 0.9 6.4 3.5 11.3 6.7 16 -0.8 4-1.8 7.7-3.9 10.6 -1.9 2.7-4.7 4.8-7.2 7.3 -2.2 2.4-4.4 4.9-6.5 8 -1.7 2.6-4.3 6.7-2.9 11.2 0.3 1 1.4 2.4 2.4 2.4 1.6 0 2.6-2.7 4.1-2.9 -2.5 3.8-5.3 6.9-7.6 10.9 -2.3 3.9-4.3 9.3-1.9 14.3 0.2 0.4 0.6 1 1 1.5 0.3 0.3 1.1 0.7 1.1 1.2 0 0.5-0.7 2.2-0.9 2.9 -0.2 1-0.7 2-0.1 2.8C9.3 142.1 0.7 124.1 0 98.4c0-0.4 0-0.7 0-1.1 0.6-20.2 5.9-35.6 14-48.7 8-12.8 18.5-23.1 31.4-30.9C58.6 9.9 74.6 4.4 94.5 4.4c9.9 0 19 1.7 26.9 4.2 7.9 2.5 14.9 5.8 21.4 9.8 12.6 7.7 23.3 18.8 30.9 31.5 8 13.4 13.2 28.6 13.2 49.1 0 19.6-6.5 35.8-14.1 48.2 -7.9 13-18.5 22.9-31.4 30.7C139.3 170.6 134.7 165.1 130.7 159.6z"/>
        <path d="M130.7 159.6c0 0-0.4-0.2-0.1-0.2 1 0.3 2 0.6 3.1 1.4 0.8 0.5 1.6 1.9 2.7 1.5 1.4-0.5 0.3-4.5-0.1-5.9 -1.6-5.6-5-10.3-8.1-14.2 -4.7-5.7-10-10.3-11.3-18.5 6.7-2.1 13.6-4.3 21.1-6 1.7-0.4 3.6-0.9 5.5-1.3 0.7-0.1 1.6-0.1 2-0.3 0.6-0.3 1.1-2.4 1.5-3.2 1-2.5 1.5-4.2 2.5-6.8 0.4-0.9 1.4-2.4 1.3-3.3 -0.1-0.9-1.4-2.2-2.2-2.9 -0.5-0.5-2.5-1.8-2.4-2.5 0.2-0.7 1.7-1.2 2.4-1.7 0.7-0.5 1.6-1.4 1.9-2.2 0.5-1.6 0.5-3.8 0.6-5.9 0.2-4.9 0.8-9.8 2.1-14 0.2-0.8 0.8-1.9 0.8-2.4 -0.1-1.1-2.1-3.5-2.8-4.3 -1-1.1-2.3-3.1-3.7-3.3 -2.2-0.4-5.8 0.4-7.7 0.8 -2.5 0.5-4.9 0.9-7.2 1.3 -4.9 0.8-10 2.2-14.8 2.1 -1.7 0-3-0.9-4.5-1.4 -1.2-0.4-2.4-0.8-3.2-1.4 -1.7-1.3-3-3.2-4.5-4.8 -1.4-1.5-3.1-3.1-4.8-4.5 -1.6-1.3-3.7-2.8-5.8-3.5 -0.7-0.3-1.4-0.3-2.6-0.4 -1.9-5.4-2.3-13-1.6-20.3 0.2-2.3 0.9-4.2 1.2-6.2 -0.4-0.5-0.8-0.9-1.3-1.3 -1.3 0.5-2.3 1.7-3.2 2.6 -6.7 6.7-11.8 15.3-14.9 25.7 -2.2-1.6-3.5-4.1-5-6.5 -1.4-2.3-2.9-4.7-4.2-7.2 -2-3.6-3.8-7.7-5-12 -0.2-0.7-0.2-1.5-0.4-2.3 -0.2-0.7-0.8-0.9-1.2-1.5 -2.3 1.7-3 4.7-4.1 7.2 -1.1 2.6-2.3 5.2-3.6 7.6 -2.7 5-5 10.3-7.2 15.5 -1 2.4-2.3 5.2-3.4 7.9 -1.1 2.7-2.1 6-1.6 9.3 0.9 6.4 3.5 11.3 6.7 16 -0.8 4-1.8 7.7-3.9 10.6 -1.9 2.7-4.7 4.8-7.2 7.3 -2.2 2.4-4.4 4.9-6.5 8 -1.7 2.6-4.3 6.7-2.9 11.2 0.3 1 1.4 2.4 2.4 2.4 1.6 0 2.6-2.7 4.1-2.9 -2.5 3.8-5.3 6.9-7.6 10.9 -2.3 3.9-4.3 9.3-1.9 14.3 0.2 0.4 0.6 1 1 1.5 0.3 0.3 1.1 0.7 1.1 1.2 0 0.5-0.7 2.2-0.9 2.9 -0.2 1-0.7 2-0.1 2.8C9.3 142.1 0.7 124.1 0 98.4" class="a"/>
        <path d="M0 97.3c0.6-20.2 5.9-35.6 14-48.7 8-12.8 18.5-23.1 31.4-30.9C58.6 9.9 74.6 4.4 94.5 4.4c9.9 0 19 1.7 26.9 4.2 7.9 2.5 14.9 5.8 21.4 9.8 12.6 7.7 23.3 18.8 30.9 31.5 8 13.4 13.2 28.6 13.2 49.1 0 19.6-6.5 35.8-14.1 48.2 -7.9 13-18.5 22.9-31.4 30.7 -2.1-7.3-6.6-12.8-10.7-18.3v0" class="a"/>
      <path style="fill: #FFF" d="M207.9 68.3V9.5c0-0.4 0.1-0.8 0.3-1.2s0.5-0.6 0.8-0.8c0.3-0.2 0.7-0.3 1.1-0.3h6.7c0.4 0 0.8 0.1 1.1 0.3 0.3 0.2 0.6 0.5 0.8 0.8 0.2 0.4 0.3 0.8 0.3 1.2v50h13.5c0.7 0 1.2 0.2 1.6 0.6 0.4 0.4 0.6 0.9 0.6 1.6v6.8c0 0.6-0.2 1.1-0.6 1.5s-0.9 0.6-1.6 0.6h-22.5c-0.4 0-0.7-0.1-1.1-0.3 -0.3-0.2-0.6-0.5-0.8-0.8C208 69.1 207.9 68.7 207.9 68.3z"/>
      <path style="fill: #FFF" d="M240.8 68.2v-58.2c0-0.7 0.2-1.3 0.7-1.7 0.4-0.5 1-0.7 1.7-0.7h6.7c0.4 0 0.8 0.1 1.1 0.3 0.3 0.2 0.6 0.5 0.8 0.9 0.2 0.4 0.3 0.8 0.3 1.2v58.2c0 0.4-0.1 0.9-0.3 1.2s-0.5 0.7-0.8 0.9c-0.3 0.2-0.7 0.3-1.1 0.3h-6.7c-0.7 0-1.2-0.2-1.7-0.7C241 69.5 240.8 68.9 240.8 68.2z"/>
      <path style="fill: #FFF" d="M262.4 68V9.9c0-0.4 0.1-0.7 0.3-1.1 0.2-0.3 0.5-0.6 0.9-0.8 0.4-0.2 0.8-0.3 1.3-0.3h26.6c0.5 0 0.9 0.1 1.3 0.3 0.4 0.2 0.7 0.5 0.9 0.8 0.2 0.3 0.3 0.7 0.3 1.1v6.4c0 0.4-0.1 0.8-0.4 1.1 -0.2 0.4-0.6 0.7-1 0.9s-0.8 0.3-1.3 0.3h-18.3v13.8h14c0.7 0 1.3 0.2 1.7 0.6 0.4 0.4 0.6 1 0.6 1.6v6.3c0 0.6-0.2 1.1-0.6 1.5 -0.4 0.4-1 0.6-1.7 0.6h-13.9v24.9c0 0.4-0.1 0.8-0.3 1.1 -0.2 0.3-0.5 0.6-0.9 0.8s-0.8 0.3-1.2 0.3h-5.9c-0.7 0-1.3-0.2-1.8-0.6C262.6 69.2 262.4 68.6 262.4 68z"/>
      <path style="fill: #FFF" d="M300.1 67.9V9.7c0-0.7 0.2-1.2 0.7-1.7 0.5-0.4 1-0.7 1.8-0.7h26.6c0.7 0 1.3 0.2 1.7 0.7s0.7 1 0.7 1.7v6.2c0 0.4-0.1 0.9-0.3 1.2s-0.5 0.7-0.9 0.9c-0.4 0.2-0.8 0.3-1.2 0.3h-18.2v13.8h13.8c0.7 0 1.2 0.2 1.6 0.6 0.4 0.4 0.6 1 0.6 1.6v6.3c0 0.7-0.2 1.2-0.6 1.6s-1 0.6-1.6 0.6h-13.8v16.4h18.2c0.7 0 1.3 0.2 1.7 0.7 0.5 0.4 0.7 1 0.7 1.7v6.2c0 0.4-0.1 0.9-0.3 1.2 -0.2 0.4-0.5 0.7-0.9 0.9 -0.4 0.2-0.8 0.3-1.2 0.3h-26.6c-0.7 0-1.3-0.2-1.7-0.7C300.3 69.1 300.1 68.6 300.1 67.9z"/>
      <path style="fill: #FFF" d="M347.8 20.7c-1.7 6-4.8 13.8-6.7 17.1l-4 0.4c1.5-4.2 3.5-11.7 4.2-16.8L347.8 20.7z"/>
      <path style="fill: #FFF" d="M356.5 66.3c-1.5-1.6-2.7-3.5-3.5-5.7s-1.3-4.3-1.3-6.6v-0.1c0-0.6 0.1-1.1 0.4-1.5 0.3-0.5 0.6-0.8 1.1-1.1 0.4-0.3 0.9-0.4 1.4-0.4h6.4c0 0 0.1 0.1 0.1 0.1 0.1 0 0.1 0 0.2 0h0.2c0.5 0.2 1 0.6 1.4 1.1 0.4 0.5 0.5 1 0.5 1.5v0.9c0 0.9 0.2 1.8 0.6 2.6s0.9 1.5 1.6 2.1c0.7 0.6 1.4 1 2.3 1.2 0.6 0.2 1.3 0.3 1.9 0.3h0.3c0.2 0 0.4 0 0.5 0 0.2 0 0.2 0 0.3-0.1h0.1c1.1-0.1 2.1-0.4 3-1 0.9-0.6 1.6-1.3 2.1-2.2s0.8-1.9 0.8-3l0.2-4.5c0-1.6-0.4-2.9-1-3.9 -0.6-1-1.5-1.9-2.8-2.5 -1.4-0.8-3.7-1.3-6.7-1.3l-1.7-0.2c-3.5-0.3-6.1-1.3-7.9-3 -1.8-1.7-3-3.8-3.5-6.1s-0.8-4.9-0.8-7.6l0.1-3.1 0.1-1.3c0-2 0.3-3.8 1-5.5 0.7-1.7 1.7-3.2 3.1-4.5 1.4-1.4 3.1-2.5 5.1-3.2 2-0.7 4.1-1.1 6.5-1h2.8c2.1 0 4.1 0.4 6 1.2s3.6 2 5.1 3.5c1.5 1.5 2.6 3.2 3.4 5.2s1.2 4.1 1.2 6.4v0.1c0 0.5-0.1 1-0.4 1.4 -0.2 0.4-0.5 0.7-0.9 1 -0.4 0.2-0.8 0.4-1.3 0.4h-6.2c-0.7 0-1.2-0.3-1.7-0.8 -0.4-0.5-0.7-1.1-0.7-1.7v-0.6c0-0.9-0.2-1.7-0.6-2.4 -0.4-0.8-0.9-1.4-1.6-2s-1.4-1-2.3-1.2c-0.5-0.2-1.1-0.3-1.8-0.3h-0.7c-0.1 0.1-0.2 0.1-0.4 0.1 -1.1 0.1-2.1 0.4-2.9 1 -0.8 0.5-1.5 1.2-2 2.1 -0.5 0.8-0.7 1.8-0.7 2.8v5.2c0.1 1.2 0.5 2.1 1.2 2.8 0.7 0.7 1.6 1.2 2.9 1.5 1.3 0.3 3 0.5 5.1 0.6 3.6 0.2 6.6 1 9 2.4 2.3 1.4 4.1 3.3 5.2 5.9 1.1 2.5 1.7 5.6 1.7 9.4 0 1.6-0.1 3.1-0.2 4.5 -0.1 1.4-0.5 3-1 4.6 -0.5 1.6-1.2 3.1-2.2 4.5 -1.6 2.3-3.6 4.1-5.9 5.4 -2.4 1.3-4.9 2-7.6 2h-2.8c-2.2 0-4.3-0.4-6.3-1.3C359.9 69.2 358.1 68 356.5 66.3z"/>
      <path style="fill: #FFF" d="M406 68.6c0-0.2 0-0.3 0-0.4l11.9-58.3c0.1-0.7 0.5-1.2 1.1-1.7 0.6-0.4 1.3-0.7 2.1-0.7h11.3c0.8 0 1.5 0.2 2.2 0.7 0.6 0.4 1 1 1.2 1.7l11.8 58.3c0 0.1 0 0.2 0 0.4 0 0.6-0.2 1-0.6 1.4s-1 0.5-1.7 0.5h-7.6c-1.4 0-2.2-0.7-2.3-2l-2.7-14.7h-11.6l-2.7 14.7c-0.1 0.7-0.4 1.2-0.7 1.5 -0.3 0.3-0.9 0.5-1.6 0.5h-7.6c-0.7 0-1.3-0.2-1.7-0.5C406.2 69.7 406 69.2 406 68.6zM431.1 43.4l-3.9-22.6c0-0.2-0.1-0.3-0.2-0.3 -0.1-0.1-0.2-0.1-0.3-0.1s-0.2 0-0.3 0.1c-0.1 0.1-0.1 0.2-0.2 0.3l-3.8 22.6H431.1z"/>
    <path style="fill: #FFF" d="M291.9 117.7c0 0 0 0 0.1 0 0 0 0 0 0 0.1 -0.1 0-0.1 0-0.1 0.1C291.7 117.8 291.9 117.8 291.9 117.7z" class="b"/>
    <path style="fill: #FFF" d="M329.5 132.9c0.1 0 0.1 0.1 0.1 0.2C329.6 133 329.5 133 329.5 132.9z" class="b"/>
    <path style="fill: #FFF" d="M218.4 178.2c0.1 0.1 0.1 0.2 0.1 0.4C218.4 178.5 218.4 178.3 218.4 178.2z" class="b"/>
    <path style="fill: #FFF" d="M208.5 108.4c0.1-1.6-0.1-3.5-0.2-5.2 -0.1-3.7-0.4-7.3-0.1-12.7 0.1-1.4 0.2-2.8 0.7-3.9 -0.2 1.8 0 4.4 0.2 6.3 0.4 4.8 1 9.3 1.5 13.5 0.4 4.1 0.9 8.1 1.2 11.9 0 0.1 0 0.2 0 0.3 0.2 1.5 0.4 2.8 0.5 4.3 0 0.4 0 0.8 0.1 1.3 0.1 0.9 0.2 1.9 0.4 2.8 0.2 0 0-0.2 0-0.2 0-0.1 0.1 0 0.1-0.1 -0.2-0.2 0.1-0.3-0.1-0.5 0.1 0 0.1 0 0.1 0 0-0.1-0.1-0.1-0.1-0.2 0 0 0.1 0 0.1-0.1 -0.2-0.2 0.1-0.3-0.1-0.4 0.2-0.1 0.1-0.2 0-0.3 0.2 0.1 0.1-0.1 0-0.2 0.2-0.1 0.1-0.2 0-0.3 0 0 0.1 0 0.1 0 0-0.2-0.2-0.2 0-0.3 0 0-0.1-0.1-0.1-0.1 0.2-0.1-0.1-0.3 0.1-0.4 0-0.1-0.1-0.1-0.1-0.1 0.3-0.1-0.1-0.3 0.1-0.3 0-0.1-0.1-0.1-0.1-0.2 0-0.1 0.1 0 0.1-0.1 -0.1-0.3 0.1-0.4-0.1-0.7 0 0 0.1 0 0.1 0 0-0.1-0.1-0.1-0.1-0.2 0.3 0.1-0.2-0.3 0.1-0.3 0-0.1-0.1-0.1-0.1-0.2 0.1 0 0.1 0 0.1 0 -0.2-0.2 0.1-0.3-0.1-0.4 0-0.1 0.1 0 0.1-0.1 0-0.1 0-0.1-0.1-0.1 0.2-0.3-0.1-0.6 0.1-0.8 0 0-0.1-0.1-0.1-0.1 0 0 0.1-0.1 0.1-0.1 0-0.1-0.1-0.1-0.1-0.1 0.2-0.2-0.1-0.4 0.1-0.6 0-0.1-0.1-0.1-0.1-0.2 0 0 0.1 0 0.1 0 -0.2-0.3 0-0.6-0.2-0.8 0-0.1 0.1 0 0.1-0.1 -0.2-0.2 0.1-0.4-0.1-0.6 0 0 0.1 0 0.1-0.1 0-0.1-0.1-0.1-0.1-0.2 0.2 0 0-0.2 0-0.2 0.1-0.2 0-0.4 0-0.7 0.1-0.1 0-0.6 0-0.9 -0.3-4.2-0.5-8.2-0.8-12.6 -0.2-4-0.6-6.8-1-11.4 -0.2-1.9-0.5-3.9-0.7-6.1 0-0.1 0-0.4 0-0.5 0-0.1 0-0.5 0-0.1 0.8 3.4 1.7 7.1 2.4 10.6 0.3-3.5 0.1-7.1 0.7-11.6 0.1-0.6 0.2-1.4 0.7-1.7 0 0.3 0 0.8 0 1.1 -0.1 0.7 0 1.4 0 2.1 0 5.7 0.2 10.3 0.5 15.2 0.2 3.6 0.3 7.3 1 10.3 0 0.3 0.1 0.8 0.2 1.1 -0.1 0.3 0.1 0.7 0.1 1 0 0-0.1 0-0.1 0 0 0.3 0.2 0.5 0.2 0.8 0 0-0.1 0-0.1 0 0 0.1 0.1 0.1 0.1 0.2 0.1 0.3 0 0.6 0.1 0.9 0 0.1 0.1 0.3 0.1 0.5 -0.1 0.4 0.1 0.8 0.1 1.1 0.1 0.1 0 0.3 0.2 0.4 -0.1 0.1-0.1 0.2 0 0.2 0 0.1 0 0.1-0.1 0.1 0.1 0.1 0.1 0.1 0 0.3 0 0 0.1 0.1 0.1 0 0.1 0.6 0.1 1.2 0.2 1.6 0 0.1-0.1 0-0.1 0 0.2 0.4 0.1 1 0.2 1.3 0 0.1-0.1 0-0.1 0 0 0.1 0.1 0.2 0.1 0.1 0 0.4 0.2 0.8 0.1 1.1 0 0.1 0.1 0.1 0.1 0.1 -0.1 0.2 0 0.4 0 0.5 -0.1 0 0.1 0.1-0.1 0 0.1 0.3 0.1 0.5 0.1 0.8 0 0 0.1 0 0.1 0 0 0 0 0.1-0.1 0.1 0.1 0 0 0.2 0.1 0.1 -0.1 0.1-0.2 0.2 0 0.2 -0.2 0.2 0.1 0.4 0 0.6 0 0.1 0 0.1 0.1 0.1 -0.2 0.2 0.1 0.3-0.1 0.4 0 0.1 0.1 0.1 0.1 0.1 0 0.1-0.1 0.1-0.1 0.1 0.2 0.2 0 0.4 0.2 0.6 -0.2 0.1 0.1 0.3-0.1 0.4 0 0.1 0.1 0 0.1 0.1 0 0.1 0 0-0.1 0.1 0.2 0.2-0.1 0.3 0.1 0.4 -0.1 0.2 0 0.5 0 0.6 0 0 0 0.1-0.1 0.1 0.1 0.3 0.2 0.5 0.1 0.8 0 0 0.1 0.1 0.1 0.1 -0.1 0.1-0.1 0.2 0 0.3 0 0.1 0 0-0.1 0.1 0 0.2 0.2 0.4 0 0.6 0 0.1 0 0.1 0.1 0.1 -0.1 0.2-0.1 0.4 0 0.6 -0.1 0.1 0.1 0.2 0 0.4 0.2 0.2 0.5 0 0.8-0.1 0.4-0.1 0.9-0.1 1.4-0.3 3.1-0.6 6-1 8.4-1.5 0 0 0 0 0 0.1 0.4-0.2 1.1-0.2 1.6-0.4 0.5 0 0.9-0.2 1.4-0.1 0 0 0.1-0.1 0.1-0.1 0.2 0 0.4 0 0.6 0 0.1 0 0.1-0.1 0.2-0.1 0.1 0 0.3 0 0.4 0 0.3-0.1 0.6-0.1 0.9-0.2 0.1 0 0.2-0.1 0.3-0.1 0.1 0 0.2 0.1 0.3 0 0.1 0 0.2-0.1 0.3-0.1 0.1 0 0.4 0 0.5 0 0.2-0.2 0.5-0.2 0.7-0.1 0.4-0.2 1.1-0.1 1.5-0.3 0 0 0 0.1 0.1 0.1 0-0.1 0.4 0 0.5-0.2 0.6 0.1 1.3-0.2 1.8-0.1 0.1-0.1 0.1 0 0.1 0 0.2 0 0.8-0.1 1-0.1 0.3 0 0.7-0.2 0.9-0.1 0.4-0.2 1-0.1 1.6-0.3 0.1 0.1 0.2 0 0.4 0 0 0 0 0 0 0.1 0.1-0.1 0.3-0.1 0.5-0.1 0.2 0 0.6-0.2 0.8-0.1 0 0 0.1 0 0.1-0.1 0 0.1 0.1 0 0.1 0 0.1 0 0.2 0.1 0.2 0.1 0.1 0 0-0.1 0.1 0 -0.1 0 0.4 0 0.3 0 0 0 0.1-0.1 0.1-0.1 0.1 0 0.3 0.1 0.4 0.1 0.1 0 0.1-0.1 0.2-0.1 0.1 0 0.3 0.1 0.5 0 0.2 0.1 0.6-0.1 0.8 0 0.9-0.2 1.3 0 2.1-0.2 0.2 0.1 0.4 0.1 0.6 0 0 0.1 0.4 0 0.6 0 0.5 0.1 1.4-0.1 2.1-0.2 1.2-0.2 2.4-0.4 3.3-0.6 0.1-0.4 0-0.9 0-1.3h0.1c-0.1-1.9 0-3.8 0-5.8 0-7 0.1-14.7 0.6-21.9 0.2-2.5 0.3-5.6 1.1-8.1 -0.2 1.9-0.2 4.6-0.1 6.7 0.1 2.9 0.1 5.7 0.3 8.3 0.1-4.1 0.3-10.9 0.5-17.2 0-0.3 0.1-0.1 0 0.1 0 0.1 0 0.3 0 0.4 0.5 10.4 0.8 19.3 1.3 27.1 0.1 2.1 0.3 4.5 0.4 6.3 0.2-0.4 0.1-0.8 0.1-1.2 0.1-0.6 0-1.2 0-1.8 0.2-4.1 0-8.8 0.1-12.8 0-1.3 0-2.9 0-3.9 0-0.8-0.1-2.4 0-4.7 0.1-3.5 0-7.3 0-11 0.9 8.7 1.4 16.7 2 23.8 0.2 2.7 0.4 5.3 0.6 7.8 0.1 0.8 0.1 1.6 0.1 2.2 0.1-3.8 0.1-6 0.1-9 0-1.8 0-3.4 0-5.4 0.1-1.7 0.1-3.5 0-5.3 -0.1-2.4 0-4.9-0.2-7.2 0.5 4.2 1 9.4 1.3 13.9 0.4 6.5 0.9 12.2 1.4 18.3 2.5-0.5 4.9-1.2 7.7-1.1 0.6 0 1.2 0 1.8-0.1 -1.9 0.4-3.6 1-5.6 1.3 0.3 0.1 0.8 0 1 0 0.1 0 0 0 0 0.1 0.9-0.1 2.3-0.3 3.2-0.3 -2.8 0.4-5.3 1-8 1.5 0 0.5 0.1 0.6 0 1.1 2.2 0 4.3 0.4 7.1 0.5 0.1 0.1-0.3 0-0.4 0 -0.2 0-0.3 0-0.5 0 -2 0.3-4 0.6-6 0.8 0.1 0.2 0.7 0 1.1 0.1 1.3 0.1 2.5 1 3.9 1 0.1 0 0 0-0.1 0 -0.6 0-1.1 0-1.6 0.1 0.7 0.1 1.6 0 2.5 0 0.1 0 0.1 0 0.2 0 0 0 0.1 0 0.1 0 0.1 0 0.3 0 0.1 0 -0.1 0-0.2 0-0.3 0 -0.4 0-1 0.1-1.4 0.1 -1.3 0.3-3.1 0.3-4.4 0.7 0.5 0.1 0.9-0.1 1.5-0.2 0.9-0.2 1.9-0.3 2.8-0.3 0.4 0 0.8 0 1.1 0 1 0.1 1.9 0.6 3 0.7 0.2 0 0.6 0 0.3 0 -1.6 0.3-3 0.9-4.6 1 0.7 0.2 1.3 0.6 2.2 0.6 -0.2 0.1 0.6 0.1 0.9 0.1 0.2 0 0 0.1-0.1 0 -0.1 0.1-0.3 0-0.4 0.1 -1.8 0.4-3.6 1-5.5 1.2 -0.6 0-0.9-0.1-1.1 0.1 0.9 0.3 3.3-0.1 4.6 0.1 0 0 0.2 0 0.1-0.1 0.6 0.1 1.7-0.1 2.5-0.2 -2.1 0.4-4.8 0.8-7.1 1.3 0 0.1 0 0.3 0.1 0.5 1.5-0.3 3.3-0.1 4.8-0.3 -1.5 0.4-3.1 0.8-4.8 1.1 0.1 1.5 0.1 2.7 0.2 4.2 0 0.1 0 0.1 0.1 0.1 -0.1 1.4 0.1 2.5 0.2 3.6 0 0-0.1 0-0.1 0 0 0.4 0.1 0.8 0.1 1.3 0 0-0.1 0.1-0.1 0.1 0.1 0.2 0.1 0.7 0.1 0.9 0.2 2.9 0.2 5.7 0.4 8.5 -0.1 0.2 0 0.6 0 0.9 0 0.4-0.1 0.6-0.1 1 0 0 0.1 0.1 0.1 0.1 0 0.1-0.1 0.2-0.1 0.3 0 0 0.1 0.1 0.1 0.1 0 0.2 0 0.3-0.1 0.6 0 0.1 0.1 0.2 0.1 0.3 0 0.6-0.1 1.3-0.1 2.1 0 0.9 0.1 1.3 0 2.3 -0.1 1.2-0.4 2.8-0.6 4.3 -0.3 2.7-1 5.2-1.3 8 -0.1 0.9-0.2 1.6-0.3 2.5 0 0.1 0 0.4 0 0.3 0-3.5-0.3-6.8-0.7-8.7 0.1-0.2-0.1-0.3 0-0.4 -0.1-0.1-0.1-0.5-0.1-0.7 -0.1-0.4-0.1-0.8-0.1-1.2 0 0-0.1-0.1-0.1-0.1 0.1-0.1 0.1-0.1 0-0.1 0.1-0.2-0.1-0.5 0-0.8 -0.1-0.2-0.2-0.4 0-0.6 -0.1-0.1-0.1-0.3-0.1-0.5 -0.2-0.5-0.1-1.1-0.2-1.8 -0.5 2.7-1 4.8-1.3 8.2 -0.2-2.1-0.5-4-0.7-5.9 -0.3 1.5-0.5 3.1-0.8 4.6 -0.1-2.1-0.5-3.7-0.7-5.4 -0.4 2-0.6 4.5-0.9 7.1 0 0.8-0.1-0.2-0.1-0.3 -0.2-2.5-0.7-5-0.9-6.9 -0.1-0.4-0.1-0.8-0.1-1.1 -0.1-0.1-0.1-0.2 0-0.3 0 0-0.1-0.1-0.1-0.1 0.1-0.1 0.1-0.2 0-0.3 0.1-0.1-0.1-0.4 0-0.5 -0.2-0.3 0-0.8-0.2-1.2 0.2-0.1-0.1-0.2 0.1-0.2 -0.2-0.1 0.1-0.2-0.1-0.2 0.1-0.1 0-0.4-0.1-0.5 0.1-0.1 0.1-0.3 0-0.3 0.2-0.3-0.1-0.5 0-0.7 -0.2-0.1 0.1-0.2-0.1-0.3 0 0 0.1-0.1 0.1-0.1 -0.1-0.2-0.1-0.4-0.2-0.7 0 0 0.1 0 0.1 0 0-0.3-0.2-0.8-0.2-1.1 0 0 0.1-0.1 0.1-0.1 0-0.1-0.1-0.3-0.1-0.5 0-0.2 0.1-0.1 0-0.2 0.1-0.8-0.2-1.7-0.1-2.4 0 0-0.1-0.1-0.1-0.1 0-0.9-0.2-2.4-0.2-3.4 0 0-0.1-0.1-0.1-0.1 0.2 0 0-0.2 0-0.3 0 0 0.2-0.1 0-0.2 0 0 0.1 0 0.1-0.1 -0.2-0.2 0.1-0.4-0.1-0.6 0.1 0 0.1-0.2 0-0.2 0 0 0.1-0.1 0.1-0.1 -0.2-0.2 0.1-0.3-0.1-0.4 0-0.1 0.1 0 0.1-0.1 -0.2-0.2 0.1-0.4-0.1-0.6 0-0.1 0.1 0 0.1-0.1 -0.2-0.2 0.1-0.4-0.1-0.6 0-0.1 0.1 0 0.1-0.1 0-0.1-0.1-0.1-0.1-0.1 0.1-0.1 0.2-0.2 0-0.2 0 0 0.1 0 0.1-0.1 -0.2-0.2 0.1-0.3-0.1-0.4 0.2-0.1 0-0.1 0-0.2 0-0.1 0.1 0 0.1-0.1 0-0.1-0.1-0.1-0.1-0.1 0 0 0.1-0.1 0.1-0.1 0-0.1-0.1 0-0.1-0.1 0 0 0.2-0.2 0-0.2 0 0 0.1-0.1 0.1-0.1 -0.2-0.2 0.1-0.3-0.1-0.4 0-0.1 0.1 0 0.1-0.1 -0.2-0.2 0.1-0.4-0.1-0.6 0.2-0.1 0-0.1 0-0.3 0 0 0.1 0 0.1 0 -0.2-0.3 0-0.5-0.2-0.8 0.3-0.1-0.1-0.3 0.1-0.3 0 0-0.1-0.1-0.1-0.1 0-0.1 0.1 0 0.1-0.1 0-0.1-0.1-0.1-0.1-0.1 0 0 0.1 0 0.1-0.1 0-0.1-0.1-0.1-0.1-0.1 0-0.1 0.1 0 0.1-0.1 -0.2-0.3 0.1-0.6-0.1-0.8 0-0.1 0.1 0 0.1-0.1 -0.2-0.3 0.1-0.5-0.1-0.8 0-0.1 0.1 0 0.1-0.1 -0.2-0.2 0.1-0.2-0.1-0.4 0.1 0 0.1-0.3 0-0.4 0-0.1 0.1 0 0.1-0.1 -0.2-0.2 0.1-0.2-0.1-0.4 0 0 0.1 0 0.1 0 -0.2-0.1 0.1-0.3-0.1-0.4 0 0 0.1 0 0.1-0.1 -0.1-0.5 0-0.8-0.1-1.3 -4.2 0.7-7.8 1-11.5 1.4 -0.8 0.1-1.7 0-2.5 0.1 -0.1 0-0.4 0-0.6 0.1 -0.3 0-0.7 0-1.1 0.1 -0.5-0.1-1.1 0-1.7 0.1 0 0 0-0.1 0-0.1 -0.8 0-1.7 0.1-2.6 0.2 -5.4 0.3-11.9 0.5-18.1 1.1 0.1 0.1 0 0.3 0.1 0.5 -0.1 0.1-0.1 0.3 0 0.3 -0.2 0.2 0.1 0.3-0.1 0.5 0 0.1 0.1 0.1 0.1 0.1 -0.1 0.2-0.1 0.2 0 0.3 0 0.1-0.1 0.4 0 0.6 -0.1 0.1-0.1 0.1 0 0.3 0 0.1 0 0-0.1 0.1 0.2 0.2-0.1 0.3 0.1 0.4 -0.1 0.1-0.1 0.1-0.1 0.2 0.2 0.1-0.1 0.3 0.1 0.4 -0.1 0.1-0.2 0.2 0 0.3 -0.1 0.1-0.2 0.2 0 0.3 -0.1 0.1-0.2 0.2 0 0.3 0 0.1-0.2 0.2 0 0.3 -0.2 0.2 0.1 0.2-0.1 0.5 0 0.1 0.1 0.1 0.1 0.1 -0.2 0.2 0.1 0.2-0.1 0.5 0 0.1 0.1 0 0.1 0.1 -0.1 0.1-0.1 0.3 0 0.2 0 0.3-0.1 0.4 0.1 0.6 -0.1 0.3-0.1 0.4 0 0.6 -0.2 0.3 0.1 0.5-0.1 0.7 0 0 0.1 0.2 0.1 0.1 0 0.5 0.1 0.8 0 1.3 0 0.2 0.1-0.1 0.1 0.1 -0.1 0 0.1 0.1-0.1 0.1 0.2 0.4 0 0.5 0.1 0.7 -0.1 0.1-0.1 0.3 0 0.2 0 0.3-0.1 0.7 0.1 0.8 -0.2 0.4 0.1 0.7-0.1 1 0 0.1 0.1 0 0.1 0.1 -0.1 0 0.1 0.1-0.1 0 0 0.2 0.1 0.3 0 0.4 0 0.1 0 0.1 0.1 0.1 -0.2 0.5 0.1 1.3-0.1 1.7 0 0.1 0.1 0.1 0.1 0.1 0 0.7 0 1.3 0 1.8 -0.2 0.1 0.1 0-0.1 0.1 0.1 0.2-0.1 0.4 0.1 0.6 -0.1 0.1-0.1 0.3-0.1 0.4 0 0.1 0.1 0.1 0.1 0.1 0 0-0.1 0.1-0.1 0.2 0.1 0.5-0.1 1 0.1 1.7 0 0.1-0.1 0.1-0.1 0.2 0.1 0.3 0 1.1-0.1 1.7 -0.1 1.8-0.2 4.1-0.4 6.4 -0.1 1.7-0.4 3.3 0 5.1 -0.2-0.3-0.2-0.8-0.3-1.2 -0.1 1.9-0.1 5.1 0 7.5 -0.3-1.1-0.3-2.1-0.5-3.2 -0.6-4.6-1.6-9.2-2.1-12.8 0 1.9 0.1 5.6 0.3 8.2 -0.6-2.5-1.1-5.1-1.6-7.7 0.2 2.8 0.2 5.4 0.4 9.2 0.1 1.2 0.2 2.1 0.3 3.4 -1.3-5.1-2.4-10.6-3.3-15.5 -0.4-2.1-0.5-4-0.9-5.7 0 0 0.1-0.1 0.1-0.1 -0.1-0.3-0.2-0.7-0.1-1.1 -0.1-0.2-0.1-0.6-0.1-0.8 -0.1-0.1-0.1-0.1 0-0.2 0 0-0.1-0.1-0.1-0.1 0.1-0.3-0.1-0.5 0-0.7 -0.1-0.1 0 0 0-0.1 0-0.2-0.2-0.5-0.1-0.7 -0.2-0.1 0-0.3-0.1-0.4 0.1-0.3-0.1-0.5 0-0.8 0 0-0.1-0.1-0.1-0.1 0.1-0.2 0.1-0.4-0.1-0.5 0.1-0.1 0.1-0.3 0-0.4 0.1-0.3 0-0.6-0.1-0.8 0 0 0.1-0.1 0.1-0.1 -0.2-0.1 0.1-0.2-0.1-0.2 0.1-0.2 0.1-0.4-0.1-0.5 0 0 0.1-0.1 0.1-0.1 0 0-0.1-0.1-0.1-0.1 0.2-0.1-0.1-0.3 0-0.5 -0.2-0.8-0.1-1.4-0.3-2.1 0 0 0.1 0 0.1-0.1 -0.1-0.2-0.1-0.5-0.1-0.7 -0.1-0.7-0.2-1.2-0.2-1.8 -0.1-0.5-0.1-1-0.2-1.5 -2.7 0.2-5.5 0.6-8.2 0.7 1.5-0.4 2.9-0.7 4.1-0.9 -1.6 0-3.8 0.2-5.2 0.1 -0.1 0-0.5 0-0.2 0 2.9-0.3 5.4-0.9 8.2-1.3 -1.7 0.2-3.9 0.4-5.8 0.6 -0.4 0-0.7 0-1.1 0 -1.1 0.1-2 0.5-2.8 0.8 0.2-0.5 0.9-0.7 1.5-0.9 -0.1-0.1-0.1-0.3 0-0.4 0.1 0.1 0 0.1 0 0.2 0.2 0 0.4 0 0.7-0.1 0.8-0.3 2-0.7 2.8-0.9 2-0.6 4.3-1.2 5.8-1.5 0-0.5 0-0.9-0.1-1.4 -2.6 0.3-5.7 0.7-8 0.9 2.7-0.6 5.1-1 8-1.5 0-0.3 0-0.6-0.1-0.9 -2.2 0.2-4.6 0.5-6.6 0.7 -0.1 0-0.1 0 0 0 2.4-0.4 4.3-0.8 6.6-1.3 -0.3-3.9-0.6-7.9-0.9-12.5 0-0.7-0.1-1.3-0.1-1.6 0-0.8-0.2-1.8-0.1-2.6 0 0-0.1 0-0.1-0.1 -0.4-6.1-0.5-11.7-1-20.9 -0.1-2.5-0.1-4.8-0.1-7.5 0-0.1 0 0.1 0 0.1 0 0.1 0 0.1 0 0.2 0.7 6.6 1.3 13.8 1.9 20.2 0 0 0 0 0 0C208.4 107.9 208.5 108.2 208.5 108.4zM212.7 127.5c0 0 0.1 0 0.1 0 0.1-0.2-0.2-0.2 0-0.3 0-0.1-0.1-0.1-0.1-0.1C212.7 127.2 212.8 127.3 212.7 127.5zM212.8 127.8c0.2 0 0.1-0.2 0-0.2C212.7 127.7 212.8 127.7 212.8 127.8zM212.8 128c0 0 0.1 0 0.1 0 0-0.1 0-0.1-0.1-0.1C212.8 127.9 212.8 128 212.8 128zM238.7 129.7c0 0 0 0.1 0 0.1 0.1 0 0.1 0 0.1-0.1 0 0 0 0 0.1 0 0 0 0-0.1 0-0.1C238.8 129.7 238.7 129.7 238.7 129.7zM236.6 130.1c0.1 0 0.1 0.1 0.1 0.1 0-0.2 0.2 0.1 0.3-0.1 0 0.1 0.2 0 0.2 0 0.1 0 0.3 0 0.4-0.1 0.1 0 0.3 0 0.4-0.1 0 0.1 0.2 0 0.2 0 0 0.1 0.1 0.1 0.1 0.1 0.1-0.1 0.1 0 0.2-0.1 -0.1-0.2-0.3-0.1-0.5 0 -0.4 0-0.9 0.1-1.3 0.1 -6.7 0.5-12.5 1.4-19.2 2.1 0 0.1-0.1 0.1-0.1 0.2 0 0 0.1 0 0.1 0.1 -0.1 0.1-0.1 0.2 0 0.2 0 0.1-0.1 0.1-0.1 0.2 0.3 0.1-0.1 0.2 0.1 0.4 -0.1 0-0.1 0.1-0.1 0.2 0 0 0.1 0.1 0.1 0.1 -0.1 0.1-0.1 0.1-0.1 0.2 0.2 0.1 0.1 0.1 0 0.2 0 0.1 0.1 0.1 0.1 0.1 0.6-0.2 1.3-0.3 1.9-0.5 0 0 0 0.1 0 0.1 0-0.1 0.3 0 0.4-0.2 0 0 0 0.1 0.1 0.1 0 0 0-0.1 0.1-0.1 0 0 0 0.1 0 0.1 0.4 0 0.9-0.2 1.3-0.3 0.1 0 0.2 0 0.3-0.1 0 0 0 0.1 0 0.1 0.6-0.1 1.3-0.3 1.9-0.5 0.1 0.1 0.3 0 0.5-0.1 0 0.2 0.3 0 0.5-0.1 0.1 0 0.2 0.1 0.2 0 0 0 0.1-0.1 0.1-0.1 0.1 0 0.2 0.1 0.2 0 0 0 0-0.1 0.1-0.1 0.1 0.1 0.2 0 0.3-0.1 0.1 0.1 0.3 0 0.3-0.1 0.3 0.1 0.8-0.1 1.1-0.1 -0.1 0 0 0 0.1-0.1 0 0 0 0.1 0.1 0.1 0 0 0-0.1 0.1-0.1 0.1 0 0.3 0 0.5-0.1 0 0.2 0.1 0 0.2 0 0.5 0 0.9-0.2 1.4-0.2 0-0.1 0.1-0.1 0.2 0 0-0.1 0.1-0.1 0.2 0 0-0.1 0.1-0.1 0.2 0 0-0.1 0.1-0.1 0.2 0 0-0.1 0.1-0.1 0.2 0 0-0.1 0.1-0.1 0.2 0 0-0.1 0.1-0.1 0.2 0 0.1-0.2 0.2 0.1 0.3-0.1 0.1 0.1 0.2 0 0.4-0.1 0.1 0.1 0.1 0 0.2 0 0 0 0 0.1 0.1 0.1 0-0.1 0.1-0.1 0.2 0 0.1-0.2 0.2 0 0.3-0.1 0.1 0.1 0.1 0 0.2 0 0 0 0 0.1 0.1 0.1 0-0.1 0.1-0.1 0.2 0 0.1-0.1 0.2-0.1 0.4-0.1 0-0.1 0.1-0.1 0.1-0.1 0 0 0 0.1 0.1 0.1 0 0 0-0.1 0.1-0.1 0.1 0.2 0.1-0.1 0.3 0 0-0.1 0.1-0.1 0.2 0 0-0.1 0.2-0.1 0.2 0 0-0.1 0.1-0.1 0.1-0.1 0 0.1 0 0.1 0.1 0.1 0 0 0-0.1 0-0.1 0.1 0.1 0.1 0 0.2 0.1 0 0 0.1-0.1 0.1-0.1 0 0.1 0 0.1 0.1 0.1 0.1-0.1 0-0.1 0-0.1 0.1 0.1 0.2-0.1 0.4 0 0-0.1 0.1-0.1 0.1-0.1 0.1 0.2 0.2-0.1 0.3 0 0-0.1 0.1-0.1 0.1-0.1 0.1 0.1 0.1 0.1 0.2 0 0 0 0 0.1 0.1 0.1 0-0.1 0.1 0 0.1-0.1 0.1 0 0.3 0 0.4-0.1 0 0.2 0.1 0 0.2 0 0 0 0 0.1 0.1 0.1 0-0.1 0.1-0.1 0.1-0.1C236.5 130.2 236.5 130.1 236.6 130.1zM255.7 132.3c-0.1 0 0.1-0.1 0.1-0.1 0.1 0.2 0.2 0 0.3 0.1 0-0.4 0.1-0.8-0.1-1 -1.4 0.3-3.3 0.5-4.6 0.9 0.3-0.1 0.5 0.1 0.7 0 0 0.1 0.1 0.2 0.1 0.1 0.1 0 0.6 0 0.9 0.1 0-0.1 0.1 0 0.2 0 0 0 0-0.1 0.1-0.1 0 0.1 0 0.1 0.1 0.1 0-0.1 0 0 0.1 0 0 0 0-0.1 0.1-0.1 0 0.1 0 0.1 0.1 0.1 0 0 0.1-0.1 0.1-0.1 0 0.1 0.2 0.1 0.2 0 0 0.1 0.1 0.1 0.2 0.1 0 0 0-0.1 0-0.1 0 0.1 0.1 0.1 0.2 0.1 0 0 0-0.1 0-0.1 0 0.1 0.1 0.1 0.2 0.1 0 0 0-0.1 0-0.1 0 0.2 0.2 0.1 0.2 0 0 0.1 0 0.1 0.1 0.1 0.1 0 0.1-0.1 0.1-0.1 0 0.1 0 0.1 0.1 0.1 0-0.1 0-0.1 0.1 0 0.1-0.1 0-0.1 0-0.1 0 0 0 0.1 0.1 0.1 0 0 0.1-0.1 0.1-0.1 0 0.1 0.1 0.1 0.1 0.1 0 0 0.1-0.1 0.1-0.1C255.6 132.3 255.7 132.4 255.7 132.3zM226 135.1c0 0.2 0.2 0 0.2 0.1 0-0.1 0.1-0.1 0-0.1C226.2 135.1 226.1 135.2 226 135.1zM224 135.6c0.2-0.1 0.8-0.1 1.1-0.3 0.2 0.1 0.5 0 0.6-0.1 -2.7 0.3-4.8 0.6-7.7 0.9 0.1 0.2 0.1 0.2 0 0.4 0.2 0.1 0.3 0 0.6-0.1 0 0 0 0.1 0 0.1 1-0.3 1.6-0.3 2.6-0.4 0 0 0-0.1 0-0.1 0 0 0 0.1 0 0.1 0.5-0.2 1.2-0.1 1.6-0.4 0.1 0.1 0.4-0.1 0.5 0 0 0 0-0.1 0.1-0.1 0.1 0.1 0.3 0 0.5-0.1C223.9 135.6 223.9 135.6 224 135.6zM208.1 137.5c0.4-0.1 1.1 0.1 1.2-0.2C208.9 137.4 208.5 137.4 208.1 137.5z" class="b"/>
    <path style="fill: #FFF" d="M218.6 171.8c0.1 0.1 0 0.2 0 0.2C218.6 172.1 218.6 171.9 218.6 171.8z" class="b"/>
    <path style="fill: #FFF" d="M425 102.5c0.1-0.7 0.1-1.5 0.1-2.2 0.1-2.4 0.2-4.7 0.3-7.2 0.2-2.6 0.2-5.5 1.1-7.6 -0.4 1.2-0.3 3.2-0.3 4.7 0.2 4.7 0.3 8.7 0.6 12.3 0.1 0 0.1-0.1 0.1-0.1 0.1-0.4 0-1.1 0-1.8 0-0.7 0-1.2 0-1.7 0-1.1 0-2.4 0-3.2 0-1.3 0-2.1 0-3.6 0.1-2.4-0.1-4.8 0.2-7.1 0.2 1.7 0.4 3.5 0.6 5.3 0.1-0.9 0.1-1.8 0.2-2.6 0.1 0.9 0.2 1.6 0.2 2.6 0.7 7.9 2 14.6 3.1 20.2 0 0 0 0-0.1 0 0.4 1.5 0.5 3.1 0.9 4.6 0 0 0 0-0.1 0 0.3 0.5 0.1 1 0.3 1.6 0 0 0.1 0 0.1 0 -0.2 0.1 0 0.2 0 0.2 0 0.1-0.1 0.1-0.1 0.2 0 0.1 0.2 0.1 0 0.2 0 0.1 0.1 0 0.1 0.1 -0.1 0.1-0.1 0.2 0.1 0.2 0 0.1-0.1 0.1-0.1 0.1 0.2 0.1 0 0.5 0.2 0.5 -0.2 0.1 0.1 0.3-0.1 0.4 0 0.1 0.1 0.1 0.1 0.1 -0.2 0.1 0.1 0.3-0.1 0.4 0 0.1 0.1 0.1 0.1 0.1 -0.2 0.2 0.1 0.2 0 0.4 0 0 0.1 0 0.1 0 -0.2 0.2 0.1 0.2 0 0.4 0 0.1 0.1 0.1 0.1 0.1 -0.1 0.1 0 0.2 0 0.2 0 0.1-0.1 0.3 0 0.3 0 0.1-0.1 0-0.1 0 0.2 0.3 0 0.7 0.2 0.8 -0.1 0.2 0 0.2 0 0.3 0 0 0 0.1-0.1 0.1 0 0 0 0.2 0.1 0.1 0 0.4 0.1 0.6 0.1 0.9 0 0.1 0.1 0.2 0.1 0.1 0.1 0.1-0.1 0.1 0 0.2 0 0.1 0.2 0 0.1 0.1 0 0.1 0 0-0.1 0.1 0 0.2 0.1 0 0.1 0.2 0 0.1 0 0-0.1 0.1 0 0.2 0.1 0 0.1 0.2 0 0-0.2 0.2 0.1 0.2 -0.1 0.1-0.2 0.3 0 0.2 0 0.1-0.1 0.1-0.1 0.1 0 0.1 0 0.1 0.1 0.1 0 0.1 0 0.1-0.1 0.2 0.1 0.1 0.2 0.1 0 0.2 0.2 0.1 0 0.3 0.2 0.4 0 0.1-0.1 0.1-0.1 0.2 0 0.1 0.1 0 0.1 0.1 0 0.1 0 0-0.1 0.1 0 0.1 0 0.2 0.1 0.1 -0.1 0.1-0.2 0.3 0 0.2 -0.1 0.1-0.2 0.3 0 0.3 -0.1 0.1-0.2 0.2 0 0.3 0 0.1-0.1 0.2 0.1 0.2 0 0.1-0.1 0.1-0.1 0.2 0 0.1 0.1 0.1 0.1 0.1 0 0.1-0.2 0.3 0.1 0.2 0 0.1-0.1 0.1-0.1 0.2 0 0.1 0.1 0.1 0.1 0.1 -0.1 0.2-0.1 0.4 0.1 0.5 -0.1 0.2 0 0.4 0 0.6 0 0.1 0 0-0.1 0.1 0.1 0.1 0 0.4 0.1 0.4 -0.1 0.2 0.1 0.3 0 0.5 0 0.1 0.1 0.1 0.1 0.1 -0.1 0.1-0.2 0.2 0 0.3 0 0.1-0.1 0.1-0.1 0.2 0 0.1 0.1 0.1 0.1 0.1 0 0.1-0.2 0.3 0 0.3 0 0.1-0.1 0.1-0.1 0.2 0 0.1 0 0.1 0.1 0.1 0 0.1-0.1 0.1-0.1 0.2 0 0.1 0.1 0.1 0.1 0.1 -0.2 0.2 0.1 0.3-0.1 0.4 0 0.1 0 0.1 0.1 0.1 0 0.1-0.1 0.1-0.1 0.2 0 0.2 0.1 0 0.1 0.1 -0.1 0.1-0.1 0.3 0 0.3 -0.1 0.2-0.1 0.2 0 0.3 0 0.1 0 0-0.1 0.1 0 0.2 0.1 0.1 0.1 0.2 0 0.1 0 0-0.1 0.1 -0.1 0.2 0.1 0.1 0.1 0.2 0 0.1 0 0-0.1 0.1 0.1 0.2 0 0.5 0.1 0.7 0.1 0 0 0.2-0.1 0.1 0.1 0.2 0.2 0.2 0 0.4 0 0.1 0.1 0.1 0.1 0.1 0 0.1-0.1 0.1-0.1 0.2 0 0 0.1 0.1 0.1 0.1 0 0.1-0.1 0.1-0.1 0.2 0 0 0.1 0.1 0.1 0.1 0 0.1-0.1 0.1-0.1 0.2 0 0 0.1 0.1 0.1 0.1 0 0.1-0.1 0.1-0.1 0.2 0 0.1 0 0.1 0.1 0.1 0 0.1-0.1 0.1-0.1 0.2 0 0.1 0.1 0.1 0.1 0.2 0 0.1 0 0-0.1 0.1 0 0.1 0 0.2 0.1 0.1 -0.2 0.2 0.1 0.3-0.1 0.5 0 0.1 0.1 0.1 0.1 0.1 -0.1 0.1-0.2 0.2 0 0.3 0 0.1-0.1 0.1-0.1 0.2 0 0.1 0.1 0.1 0.1 0.1 -0.1 0.1-0.1 0.3 0 0.3 -0.1 0-0.2 0.3 0 0.3 -0.1 0.1-0.2 0.2 0 0.3 0 0.1-0.1 0.1-0.1 0.2 0 0.1 0.1 0.1 0.1 0.1 0 0.1-0.1 0.1-0.1 0.2 0 0.1 0.1 0.1 0.1 0.1 0 0.1-0.1 0.1-0.1 0.1 0 0.2 0.1 0.1 0.1 0.2 0 0-0.1 0.3 0 0.2 -0.1 0.2 0.1 0.4 0 0.5 0 0.1 0.1 0.1 0.1 0.1 0 0.1-0.1 0.1-0.1 0.2 0 0.1 0.1 0.1 0.1 0.1 -0.1 0.2-0.1 0.2 0 0.3 0 0.1 0 0-0.1 0.1 0.1 0.3 0.2 0.4 0 0.6 0 0 0.1 0.1 0.1 0.1 -0.1 0.3-0.1 0.4 0 0.6 0 0.1 0 0-0.1 0.1 -0.1 0.2 0.1 0.1 0.1 0.2 0 0.1 0 0-0.1 0.1 0.2 0.2-0.1 0.3 0.1 0.4 0 0.1-0.1 0.1-0.1 0.2 0 0.1 0.1 0.1 0.1 0.1 0 0.1-0.1 0.1-0.1 0.2 0 0.1 0.1 0.1 0.1 0.2 0 0.1 0 0-0.1 0.1 0.2 0.2-0.1 0.3 0.1 0.4 -0.1 0.1-0.2 0.2 0 0.3 0 0.1-0.1 0.1-0.1 0.2 0 0.1 0.1 0.1 0.1 0.1 -0.1 0.1-0.1 0.1-0.1 0.2 0.2 0.1-0.1 0.3 0.1 0.4 -0.1 0.1-0.2 0.2 0 0.3 0 0.1-0.1 0.1-0.1 0.2 0 0.1 0.1 0.1 0.1 0.1 0 0.1-0.1 0.1-0.1 0.2 0.2 0.2 0 0.4 0.2 0.7 0 0.1-0.1 0.1-0.1 0.2 0 0.1 0.1 0.1 0.1 0.1 0 0.1-0.1 0.1-0.1 0.2 0 0.1 0.1 0 0.1 0.1 -0.1 0.1-0.1 0.2 0 0.3 -0.2 0.1 0.1 0.3-0.1 0.4 0.3 0.1-0.1 0.3 0.1 0.4 0 0.1 0 0-0.1 0.1 -0.1 0.2 0.1 0.1 0.1 0.2 0 0.1 0 0-0.1 0.1 -0.1 0.2 0.1 0.1 0.1 0.2 0 0.1 0 0-0.1 0.1 0.2 0.2-0.1 0.3 0.1 0.5 -0.1 0.1-0.1 0.1 0 0.3 0 0.1 0 0-0.1 0.1 0.1 0.2 0.2 0.4 0 0.6 0 0 0.1 0.1 0.1 0.1 0 0.1-0.1 0.1-0.1 0.2 0 0.1 0.1 0.1 0.1 0.2 -0.1 0.2 0.5-0.1 0.8-0.2 0.4-0.1 0.4-0.2 0.7-0.2 1.2-0.5 2.6-1 4-1.5 0.7-0.3 1.5-0.6 2.3-0.8 6.2-1.5 13.1-3.5 18.9-5.4 -0.4 0.2-0.9 0.4-1.4 0.6 1.8-0.1 3.3-0.5 4.7-0.9 1.9-0.4 3.9-0.7 5.9-1 0.9-0.1 1.8-0.4 2.7-0.6 -0.8 0.3-1.6 0.6-2.4 0.9 1.2 0 2.3-0.1 3.5-0.3 -2.5 0.8-4.7 1.8-7.1 2.7 1.4-0.2 3.9-0.4 5.8-0.8 -2.4 0.8-4.5 1.9-7 2.7 1.6-0.3 4.1-0.4 6.3-0.7 -1.5 0.4-2.9 1-4.3 1.5 0.1 0.1 0.2 0 0.3 0 -3.3 1-6.8 2.2-10.3 3.1 1.2 0 2.7-0.5 4.1-0.9 0.8-0.2 1.6-0.5 2.5-0.7 1.8-0.3 3.7-0.6 5.6-1 -0.6 0.3-1.4 0.5-2.1 0.8 2.1-0.4 5.1-0.7 7.5-1.2 -5.3 1.7-10.7 3.6-16.3 5.1 0.9 0 1.9-0.1 3.1-0.2 0.7-0.1 1.4-0.4 2.1-0.6 1.3-0.4 2.7-0.6 4.1-1 -0.8 0.3-1.6 0.6-2.4 0.9 0.4 0 0.8-0.2 1.3-0.2 -2.8 1-5.6 2-8.2 3.2 2.8-0.9 5.7-1.6 8.4-2.5 0 0.1-0.2 0.2-0.3 0.2 -2.2 0.8-4.3 1.8-6.6 2.6 -1.2 0.4-2.5 0.8-3.8 1.2 -1.3 0.4-2.6 0.6-3.9 1 -0.1 0-0.3 0.1-0.4 0.1 -1.5 0.6-3 1-4.6 1.5 -4.1 1.3-8.2 2.4-12.5 3.5 0 0.1 0 0.1 0.1 0.1 -0.1 0.1-0.2 0.2 0 0.3 -0.1 0.3 0 0.3 0 0.6 0 0.1-0.2 0.2 0 0.2 0 0.1 0 0.1-0.1 0.2 0.2 0.2-0.1 0.2 0.1 0.4 -0.2 0.3 0.1 0.7-0.1 0.9 0 0.1 0 0.1 0.1 0.1 0 0.1-0.2 0.2 0 0.2 -0.1 0.7-0.1 1.5-0.3 2.3 -0.3 2.9-1 5.1-1.2 8.1 -0.1 0.8 0 1.9 0 2.6 -0.3-1.5-0.5-3.2-0.9-4.7 -0.3 1.6-0.5 4.2-0.3 6.1 -0.8-2.7-1.9-5.8-2.6-8.5 0-0.1-0.1 0-0.1 0 0-0.1 0.1-0.1 0.1-0.2 0-0.1-0.1 0-0.1 0 0-0.1 0.1-0.1 0.1-0.2 -0.1 0-0.1 0.1-0.1 0 0-0.2 0.1 0 0.1-0.2 0-0.1-0.1 0.1-0.1 0 0-0.1 0.1-0.1 0.1-0.2 0-0.1-0.1 0.1-0.1 0 0-0.1 0.1-0.1 0.1-0.2 0-0.1-0.1 0.1-0.1 0 0-0.1 0.1-0.1 0.1-0.2 -0.3 0-0.2 0.3-0.2 0.5 -0.1 0.8-0.2 1.7-0.3 2.6 -0.1 0 0-0.1 0-0.2 -0.1 0.7 0.1 1.6 0 2.5 0 0.3 0 0.2 0-0.1 -0.4-4-1.4-7.5-2.1-10.8 -0.2 0-0.2 0-0.3 0 0.1 2.7 0 5.2 0.2 8.9 0.1 1.6 0.1 2.9 0.3 4.3 -0.9-4.3-1.8-8.4-2.5-12.8 -4.3 0.9-8.5 1.9-13.5 2.1 0.3-0.2-0.8 0-1-0.1 1.8-0.1 3.1-0.5 4.4-0.8 0.9-0.3 1.8-0.6 2.7-1 2.3-1 4.7-1.6 7.1-2.2 0-0.2-0.1-0.5-0.1-0.7 -3.2 0.8-6.6 1.6-9.7 2.6 0.7-0.4 1.5-0.7 2.2-1 -2.5 0.6-5.2 1.3-7.8 1.9 3.9-1.4 7.8-3 11.3-4.2 -2 0.2-4 0.9-5.9 1.5 -1.6 0.5-3.1 1.1-4.6 1.6 1.7-0.9 3.5-1.7 5.4-2.5 -1.2-0.1-2.6 0-3.4-0.5 -1 0.2-1.9 0.7-2.8 1 2.4-1.5 5.1-2.6 7.8-3.8 -1.2 0.3-2.5 0.8-3.7 1.3 -0.2 0 0.3-0.1 0.4-0.2 2-0.8 4-1.8 6.1-2.7 0.6-0.3 1.3-0.5 1.9-0.7 0.6-0.3 1.3-0.5 1.8-0.8 -0.2-0.2 0-0.6-0.2-0.8 0.1-0.1 0.1-0.3 0-0.3 0-0.2 0.1-0.3-0.1-0.4 0.1-0.1 0.1-0.3 0-0.4 0-0.2 0.1-0.4-0.1-0.6 0-0.2 0-0.4-0.1-0.6 0.2 0 0-0.2 0-0.1 0 0 0.1-0.1 0.1-0.1 -0.2-0.2 0-0.5-0.2-0.7 0.2-0.2-0.1-0.3 0.1-0.5 0 0-0.1-0.1-0.1-0.1 0.1-0.1 0.1-0.3 0-0.4 0.1-0.2 0.1-0.4-0.1-0.6 0.1-0.1 0.1-0.3 0-0.4 0.1 0 0-0.3 0-0.3 0-0.1 0 0 0.1 0 -0.1-0.4-0.1-0.7-0.1-1.1 -0.2-0.2 0-0.5-0.2-0.7 0 0 0.1-0.1 0.1-0.1 0 0-0.1-0.1-0.1-0.1 0-0.1 0.1-0.1 0.1-0.1 -0.2-0.2 0.1-0.4-0.1-0.5 0.2-0.1-0.1-0.3 0-0.5 -0.1-0.3-0.1-0.5-0.1-0.8 0-0.1-0.1 0.1-0.1-0.1 0-0.1 0.1-0.1 0.1-0.1 -0.1-0.2-0.1-0.4-0.1-0.6 0-0.1-0.1-0.3 0-0.4 -0.2-0.3 0-0.8-0.2-1.1 0.2-0.1-0.1-0.2 0.1-0.3 -0.2-0.3 0-0.5-0.2-0.7 0 0 0.1-0.1 0.1-0.1 0 0-0.1 0-0.1-0.1 0.1-0.1 0-0.3 0-0.4 0-0.1 0 0 0-0.2 -0.1-0.2 0.1-0.1 0-0.2 0-0.1 0.1-0.1 0.1-0.1 0 0-0.1-0.1-0.1-0.1 0.1-0.2 0-0.4 0-0.6 0 0 0.1-0.1 0.1-0.1 0-0.1-0.1-0.2-0.1-0.3 0-0.1 0-0.2 0-0.3 -0.1-1-0.3-2-0.3-3.1 -0.2-3.7-0.5-7.7-0.8-11.9 -0.4-7.3-0.6-12.6-0.8-18.5 -0.1-2.4-0.1-5.2-0.1-7.6 0-2.4 0-6.1 0.4-8.9 0.2 1.7 0.3 3.9 0.5 5.9 0.1-2.2 0.2-4.1 0.4-6.4 0.1-1.3 0.3-2.8 0.9-3.9 0.1 0 0.2-0.1 0.3-0.1 -0.1 0.1-0.2 0.1-0.2 0.2 -0.3 3-0.1 6.7 0.1 9.4 0.2 2.6 0.4 4.9 0.7 7.1C424.9 101.4 424.9 102 425 102.5zM454.5 148.4c-0.1 0.1 0.3 0 0.4-0.1 0.2-0.1 0.5-0.2 0.6-0.1 0-0.1 0.4-0.2 0.2-0.1C455.3 148.2 455 148.3 454.5 148.4zM417.4 160.2c0.9-0.1 1.8-0.3 2.6-0.5 0.7-0.2 1.4-0.6 2.1-0.8 0.6-0.2 1.1-0.4 1.6-0.6 0.1 0 0.4 0 0.4-0.2 -1.3 0.4-2.7 1-4 1.1 1.5-0.6 3-1.3 4.3-1.9 0.5-0.2 1.1-0.3 1.4-0.7 -4 1.1-8 2.3-11.8 3.7C415.1 160.4 416.3 160.4 417.4 160.2z" class="b"/>
    <path style="fill: #FFF" d="M360.6 129.2c-0.2 0.1 0.1 0.2 0.1 0.3 0 0.1-0.1 0-0.1 0 0 0.1 0.1 0.1 0.1 0.1 0 0.1-0.1 0.1-0.1 0.2 0 0.1 0.1 0.1 0.2 0.1 -0.1 0.1-0.1 0.2 0.1 0.2 -0.1 0.1-0.1 0.3 0.1 0.2 0 0.1-0.1 0.1-0.1 0.1 0.1 0 0.1 0.1 0.2 0.1 -0.1 0.1-0.1 0.2 0.1 0.2 0 0.1-0.1 0.1-0.1 0.2 0 0.1 0.1 0.1 0.2 0.1 -0.1 0.2 0 0.2 0.1 0.3 0 0.1 0 0-0.1 0.1 0 0.1 0.1 0.1 0.1 0.1 0 0.1-0.1 0.1-0.1 0.2 0 0.1 0.1 0.1 0.2 0.1 -0.1 0.1-0.1 0.3 0.1 0.2 0 0 0 0.1-0.1 0.1 0 0.1 0.1 0.1 0.2 0.1 0 0.1 0 0.1-0.1 0.1 0 0.1 0.1 0.1 0.2 0.1 0 0.1-0.1 0.1-0.1 0.1 0 0.1 0.2 0 0.2 0.1 0 0.1 0 0-0.1 0.1 0 0.1 0.1 0.1 0.1 0.1 0 0.1-0.1 0-0.1 0.1 0 0.1 0.1 0.1 0.2 0.1 0 0.1-0.1 0.1-0.1 0.2 0 0.1 0.1 0.1 0.2 0.1 0 0 0 0.1-0.1 0.1 0 0.1 0.1 0.1 0.2 0.1 0 0.1-0.1 0.1-0.1 0.2 0 0.1 0.1 0.1 0.2 0.1 -0.2 0.2 0.2 0.3 0 0.4 0 0.1 0.1 0.1 0.2 0.1 -0.1 0.1 0 0.3 0.1 0.3 0 0.2-0.1 0-0.1 0.1 0 0.1 0.1 0.1 0.2 0.1 -0.2 0.1 0 0.2 0.1 0.3 -0.1 0 0.1 0.1-0.1 0.1 0 0.1 0.1 0.1 0.2 0.1 0 0.1-0.1 0.1-0.1 0.2 0 0.1 0.1 0.1 0.2 0.1 -0.2 0.2 0.2 0.2 0 0.4 0 0.1 0.1 0.1 0.2 0.1 -0.1 0.1 0.1 0.1-0.1 0.1 0 0.2 0.1 0.1 0.2 0.1 0 0 0 0.1-0.1 0.1 0 0.1 0.1 0.1 0.2 0.1 -0.2 0.2 0.2 0.3 0 0.4 0 0.1 0.1 0.2 0.1 0.1 0.1 0 0 0.1-0.1 0.1 0.1 0.1 0.1 0.1 0.2 0.1 0 0 0 0.1-0.1 0.1 0 0.1 0.1 0.2 0.2 0.1 -0.1 0.1-0.1 0.3 0.1 0.3 0 0.2-0.1 0-0.1 0.1 0 0.1 0.1 0.1 0.2 0.1 0 0 0 0.1-0.1 0.1 0 0.1 0.1 0.1 0.1 0.1 0.2-0.3 0.5-0.5 0.6-0.9 0 0 0.1 0 0.1 0 0.1-0.2 0.3-0.4 0.4-0.6 2.2-3.6 4.5-7.4 7-11.2 -1.5 3.7-3.2 7.4-4.6 10.3 2-2.4 3.7-5.6 5.5-8.6 0.2-0.4 0.5-0.8 0.8-1.3 0.3-0.4 0.8-1.1 0.8-1.3 0.1-0.4-0.3-1-0.1-1.4 0.1 0.3 0.3 0.5 0.5 0.8 0.1-0.2 0.5-0.5 0.5-0.8 0-0.1-0.1-0.2-0.2-0.4 -0.3-0.6-0.8-1.8-1-2.5 0-0.2 0-0.3 0-0.4 0.6 0.8 1.2 1.6 1.7 2.4 0-0.4-0.4-0.7-0.5-1.1 0.3 0.1 0.6 0.4 0.8 0.6 0.2-0.2 0.3-0.5 0.5-0.7 -0.1 0.2-0.2 0.5-0.4 0.7 0.5 0.5 0.9 1 1.3 1.5 0.4-0.2 0.6-0.5 1-0.6 -0.2 0.2-0.6 0.5-0.8 0.8 1.2 1.5 2.7 3.3 3.5 4.5 0 0 0.1 0 0.1 0 0 0.2 0.2 0.4 0.3 0.5 0.1 0.1 0.2 0.3 0.4 0.4 0 0.2 0.3 0.3 0.3 0.6 0 0 0.1 0 0.1 0 0 0.2 0.3 0.3 0.2 0.5 0.3 0.2 0.2 0.4 0.5 0.6 0 0.1 0 0.1 0.1 0.1 0 0.1 0 0.2 0.1 0.1 0.1 0.2 0.2 0.4 0.4 0.6 0 0.1 0 0.1 0 0.1 0 0.1 0.1 0 0.1 0 0 0.2 0.2 0.3 0.2 0.4 0 0 0.2 0.2 0.2 0.3 0 0.1 0.2 0.2 0.3 0.2 -0.1 0.1 0.1 0.3 0.2 0.3 -0.1 0.1 0 0.2 0.1 0.2 -0.1 0.1 0 0.2 0.1 0.2 0.1 0.1 0.3 0.2 0.3 0.2 0 0.1-0.1 0.2 0.1 0.2 0 0 0 0.1-0.1 0.1 0.2 0.1 0.2 0.4 0.5 0.5 -0.1 0.1 0 0.2 0.1 0.2 -0.1 0.1 0 0.2 0.1 0.2 -0.1 0.1 0 0.2 0.1 0.2 0 0.2 0 0.1 0.1 0.2 -0.1 0.1 0 0.2 0.1 0.2 0 0.1 0 0.1-0.1 0.1 0.1 0.1 0.2 0.1 0.2 0.2 0 0 0 0 0 0 0.2-0.1 0.1 0.3 0.3 0.2 -0.1 0.2 0 0.1 0.1 0.2 -0.1 0.3 0.2 0.1 0.1 0.3 0 0.1 0.1 0.1 0.2 0.1 0 0 0 0.1-0.1 0.1 0.1 0 0.1 0.1 0.2 0.1 -0.1 0.1 0 0.2 0.1 0.2 -0.1 0.1 0 0.2 0.1 0.2 -0.1 0.1 0 0.2 0.2 0.2 0 0 0 0.1-0.1 0.1 0.1 0 0.1 0.1 0.2 0.1 0 0 0 0.1-0.1 0.1 0.1 0.1 0.1 0 0.2 0.1 -0.1 0.2 0 0.1 0.1 0.2 -0.1 0.2 0 0.1 0.1 0.2 0 0.1 0 0.1-0.1 0.1 0 0.1 0.1 0.1 0.2 0.1 0 0.1 0 0.1-0.1 0.1 0 0.1 0.2 0.1 0.2 0.1 0 0-0.1 0.1-0.1 0.1 0.1 0.1 0.1 0.1 0.2 0.1 0 0 0 0.1-0.1 0.1 0 0.1 0.1 0.1 0.2 0.1 0 0 0 0.1-0.1 0.1 0 0.1 0.1 0.1 0.2 0.1 -0.2 0.1 0.1 0.2 0.1 0.2 0.1 0.1 0 0.3 0.2 0.2 0 0 0 0.1-0.1 0.1 0 0.1 0.1 0.1 0.2 0.1 -0.1 0.1 0 0.2 0.1 0.2 0.1 0 0 0.1 0 0.1 0.1 0 0.1 0.1 0.2 0.1 0 0.1-0.1 0.1-0.1 0.1 0 0 0.1 0.1 0.2 0.1 -0.1 0.1 0 0.2 0.2 0.2 0 0.1-0.1 0.1-0.1 0.1 0 0.1 0.1 0.1 0.2 0.1 -0.1 0.1 0 0.2-0.1 0.1 0 0.1 0.2 0.1 0.3 0.2 -0.2-0.1 0.1-0.3 0-0.3 0-0.1 0.2-0.2 0-0.2 0.1-0.1 0.2-0.1 0.1-0.3 0.1 0 0.2-0.2 0-0.2 0.1 0 0.1-0.1 0.1-0.1 -0.2-0.1 0.1-0.2 0-0.3 0-0.1 0.2-0.2 0-0.2 0 0 0.1-0.1 0.1-0.1 0-0.1-0.1-0.1-0.1-0.2 0.1 0.1 0-0.1 0.1-0.1 0-0.1-0.1-0.1-0.1-0.1 0.1 0 0.2-0.2 0.1-0.2 0.1 0 0.1-0.1 0.1-0.1 0-0.1-0.1-0.1-0.1-0.1 0.1-0.1 0.2-0.3 0.1-0.5 0.1 0 0.1-0.1 0.1-0.1 0-0.1 0-0.1-0.1-0.1 0.1 0 0.1-0.1 0.2-0.1 0 0-0.1-0.1-0.1-0.1 0.1 0 0.1-0.1 0.1-0.1 -0.1-0.1 0-0.2 0-0.2 0 0-0.1-0.1-0.1-0.1 0-0.1 0.2-0.1 0-0.2 0.2-0.1 0-0.3 0.2-0.3 0-0.1-0.1-0.2 0-0.2 0-0.1-0.1-0.1-0.1-0.2 0.1 0 0.2-0.3 0.1-0.4 0 0 0.1 0 0.1 0 0-0.1 0-0.1-0.1-0.1 0.1 0 0.1-0.1 0.1-0.1 0-0.1 0-0.1-0.1-0.1 0.1 0 0.1-0.1 0.1-0.1 0-0.1-0.1-0.1-0.1-0.1 0.1 0 0.1-0.1 0.1-0.1 0-0.1-0.1-0.2 0-0.2 0-0.1-0.1-0.1-0.1-0.2 0.1 0.1 0-0.1 0.1 0 -0.1-0.2 0.1-0.2 0-0.4 0.2-0.2 0.2-0.8 0.4-1.1 0-0.4 0.1-0.7 0.2-1 0-0.2 0-0.4 0.1-0.6 0.1-1 0.4-1.6 0.6-2.6 0.2-0.4 0.2-0.8 0.4-1.2 0-0.1 0-0.3 0.1-0.4 0-0.3 0-0.5 0.2-0.8 -0.1-0.1 0-0.3 0.1-0.4 0.3-1.5 0.7-3.2 1.2-4.6 0-0.1-0.1-0.1 0-0.2 0.3-0.5 0.3-1.2 0.6-1.9 0.1-0.9 0.5-1.6 0.6-2.6 0.7-2.4 1.5-5.2 2-7.1 0-0.1 0.2-0.4 0.2-0.6 1.6-6 3.8-12.9 6.3-19.5 -0.1 0.6-0.4 1.2-0.5 1.9 -1.3 6-2.6 12.2-3.6 17.3 0.4-0.9 0.5-1.9 0.9-2.6 0.1-0.1 0.2-0.4 0.2-0.5 0.5-1.6 0.8-3 1.3-4.4 1.4-4.7 3.1-10 5.2-14.4 0.1 0-0.1 0.2-0.1 0.4 -0.2 0.4-0.3 0.8-0.4 1.2 -0.1 0 0 0.1-0.1 0.1 -1.7 6.3-3 12.7-4.2 18 -0.5 2.1-0.9 4.5-1.4 6.6 -0.1 0.4-0.2 0.9-0.2 1.4 -0.2 0.5-0.2 1.1-0.5 1.9 0.2 0 0.1-0.3 0.2-0.4 0.1-0.5 0.3-1 0.4-1.5 0.1-0.4 0.2-0.7 0.4-1.1 0 0 0.1 0 0.1 0 0.1-0.1 0-0.4 0.1-0.6 0.2-0.5 0.3-0.8 0.5-1.2 0.4-1.7 1.2-3.3 1.7-5.2 0 0 0.1 0 0.1 0 0 0 0 0-0.1 0 0.4-0.9 0.9-2.5 1.1-3.1 0.1-0.3 0.2-0.7 0.4-1.1 1.4-4 3.2-9.3 5.1-14.8 0.1 0.3 0 0.8 0 1.2 -0.3 2.1-0.9 4.1-1.4 6.1 -0.5 2.1-1 4.1-1.4 6 -0.4 1.7-0.9 3.5-1.2 4.9 0 0.2 0 0.4-0.1 0.6 0 0.1-0.1 0.2-0.1 0.3 0 0.1 0 0.2 0 0.4 -0.3 1.3-0.7 2.6-0.9 3.8 -0.2 1.4-0.6 2.5-0.8 4 -0.2 0.1-0.1 0.5-0.2 0.6 0 0.6-0.2 1-0.3 1.5 0.3-0.7 0.4-1.5 0.8-2.2 0.2-0.9 0.5-1.5 0.7-2.4 0.1 0 0.2-0.4 0.2-0.5 0.1-0.3 0.1-0.6 0.2-0.9 0.2-0.6 0.4-1.1 0.6-1.8 0.2-0.5 0.5-1.2 0.7-1.9 0.1-0.4 0.2-0.9 0.4-1.3 0.2-0.4 0.3-1.1 0.5-1.6 0.1-0.2 0.3-0.5 0.3-0.6 1.3-4.5 3.5-9.7 5.5-14.5 -2.1 6.5-3.4 13.4-4.6 19.7 -0.4 2.2-0.8 4.3-1.3 6.7 -0.1 0.9-0.2 1.6-0.5 2.5 0 0 0 0 0.1 0 -0.2 0.7-0.3 1.6-0.5 2.3 0 0.2-0.1 0.6-0.2 0.8 0 0 0.1 0 0.1 0.1 -0.1 0.5-0.3 1-0.3 1.5 0 0.1 0 0.2 0 0.3 0 0.1-0.1 0.2-0.1 0.4 0 0.1 0 0.2 0 0.2 0 0.1-0.1 0.1-0.1 0.1 0 0 0.1 0.1 0.1 0.1 0 0.1-0.1 0.1-0.1 0.2 0 0 0.1 0.1 0.1 0.1 0 0-0.1 0.1-0.1 0.2 0 0.1 0 0.1 0 0.2 0 0-0.1 0.1-0.1 0.1 0 0 0 0.2 0 0.4 0 0.1-0.1 0.3-0.1 0.4 0 0-0.1 0.1-0.1 0.1 0 0 0 0.3 0 0.4 0 0.1 0 0.1-0.1 0.2 0 0-0.1 0.1-0.1 0.1 0 0 0.1 0.1 0.1 0.1 -0.1 0.2-0.1 0.2-0.2 0.4 0 0.1 0.1 0.1 0 0.1 0 0-0.1 0.1-0.1 0.1 0 0 0.1 0.2-0.1 0.2 0 0.2 0 0.6-0.2 0.8 0 0.1 0 0.1 0.1 0.1 -0.3 0.7-0.2 1.4-0.6 2 0 0.6-0.3 1.1-0.4 1.8 0 0.1-0.1 0.1-0.1 0.1 0.1 0.3 0 0.6-0.2 0.8 0.1 0.1 0.1 0.3-0.1 0.3 0.2 0.1 0 0.2-0.1 0.3 0 0 0.1 0.1 0.1 0.1 0 0.1-0.1 0-0.1 0.1 0 0.1 0.1 0.3-0.1 0.3 0.2 0.1 0 0.2-0.1 0.3 0 0 0.1 0.1 0.1 0.1 0 0.1-0.1 0.1-0.1 0.1 0 0 0 0.1 0 0.1 0 0.1-0.1 0.1-0.1 0.1 0 0 0.1 0.2-0.1 0.2 0.2 0.1 0 0.2-0.1 0.3 0 0.1 0.1 0.3-0.1 0.2 0.1 0.2 0 0.5-0.1 0.6 0.1 0.2 0 0.4-0.1 0.5 0.1 0.1 0.1 0.3-0.1 0.3 0.2 0.1 0 0.2-0.1 0.3 0 0 0.1 0.1 0.1 0.1 0 0.1-0.1 0.1-0.1 0.1 0 0 0.1 0.1 0.1 0.1 0 0.1-0.2 0.3-0.2 0.4 0 0 0.1 0.1 0.1 0.1 0 0.1-0.1 0.1-0.1 0.1 0 0 0.1 0.4-0.1 0.2 0.1 0.1 0.1 0.3-0.1 0.3 0.1 0.1 0.1 0.3-0.1 0.3 0.1 0.1 0 0.4-0.1 0.5 0.1 0.1 0.1 0.3-0.1 0.3 0 0.2 0 0.6-0.2 0.8 0 0.3 0 0.6-0.2 0.8 0.1 0.1 0.1 0.3-0.1 0.3 0.2 0.1-0.1 0.2-0.1 0.3 0 0 0.1 0.1 0.1 0.1 0 0.1-0.1 0.1-0.1 0.2 0 0 0.1 0.1 0.1 0.1 0 0-0.1 0.3-0.1 0.2 0 0.1-0.1 0.1-0.1 0.1 0 0 0.1 0.1 0 0.1 0 0.1 0 0.1-0.1 0.2 0 0.1-0.1 0.1-0.1 0.3 0 0.1-0.1 0.1-0.1 0.1 0.1 0.1 0.1 0.3-0.1 0.3 0.1 0.2 0 0.4-0.1 0.5 0.2 0.1 0 0.2-0.1 0.3 0 0 0.1 0.1 0 0.1 0 0.1 0 0.1-0.1 0.2 0 0.1-0.1 0.1-0.1 0.3 0 0.1-0.1 0.1-0.1 0.1 0.1 0.1 0.1 0.3-0.1 0.3 0.1 0.1 0 0.2-0.1 0.3 0.1 0 0.1 0.3-0.1 0.2 0.2 0.1 0 0.1-0.1 0.3 0 0 0 0.1 0 0.1 0 0-0.1 0.1-0.1 0.1 0 0.1 0.1 0.3-0.1 0.2 0.1 0.1 0.1 0.3-0.1 0.3 0.2 0.1-0.1 0.2-0.1 0.3 0 0.1 0.1 0.2-0.1 0.3 0.1 0.1 0 0.2-0.1 0.2 0.2 0.1 0 0.2-0.1 0.3 0 0 0.1 0.4-0.1 0.2 0.1 0.1 0.1 0.3-0.1 0.3 0.1 0.1 0.1 0.3-0.1 0.3 0 0.3 0 0.6-0.2 0.8 0 0 0.1 0.1 0.1 0.1 -0.2 0.2 0 0.4-0.2 0.5 0.1 0.1 0.1 0.3-0.1 0.3 0 0.2 0 0.6-0.2 0.8 0.1 0.1 0.1 0.3-0.1 0.3 0.1 0.5-0.2 0.7-0.2 1.3 -0.1 0 0 0.1-0.1 0.1 0.1 0.1 0.1 0.3-0.1 0.3 0.2 0.2-0.2 0.4-0.1 0.7 0 0.1-0.1 0.1-0.2 0.1 0.1 0.1 0.1 0.3-0.1 0.3 0 0 0.1 0.1 0 0.2 0 0 0.1 0.1 0.1 0.1 0.1 0 0 0.1 0 0.1 0 0.1 0.1 0 0.2 0.1 0 0.1 0 0.1-0.1 0.1 0.1 0.1 0.1 0.1 0.2 0.1 0 0.1-0.1 0.1-0.1 0.1 0.1 0.1 0.2 0.1 0.2 0.1 0 0 0 0.1-0.1 0.1 0.1 0.1 0.1 0.1 0.2 0.1 0 0.1-0.1 0.1-0.1 0.1 0.1 0 0.1 0.1 0.2 0.1 0 0-0.1 0.1-0.1 0.1 0.1 0.1 0.1 0 0.2 0.1 0 0 0 0.1-0.1 0.1 0 0.1 0.1 0.1 0.2 0.1 0 0.1-0.1 0.1-0.1 0.2 0.1-0.2 0.1 0.1 0.2 0.1 0 0 0 0.1-0.1 0.1 0 0.1 0.1 0.1 0.2 0.1 -0.1 0.1 0.1 0.1-0.1 0.1 0.1 0 0.1 0.1 0.2 0.1 0 0 0 0.1-0.1 0.1 0 0.1 0.2 0.1 0.2 0.1 0.1 0 0 0.1 0 0.1 0 0.1 0.1 0 0.2 0.1 0 0.1-0.1 0.1-0.1 0.1 0 0 0.1 0.1 0.2 0.1 0 0.1-0.1 0.1-0.1 0.1 0 0.1 0 0.2 0.1 0.1 -0.1 0.1-0.1 0.3 0.1 0.2 0 0 0 0.1-0.1 0.1 0 0.2 0.1 0.1 0.1 0.2 -0.1 0 0.1 0.1-0.1 0 0 0.1 0 0.2 0.1 0.1 -0.1 0.3 0 0.5 0.2 0.6 0 0.1-0.1 0.1-0.1 0.1 0.1 0.1 0.1 0.4 0.2 0.4 0 0.1 0 0.2 0.1 0.2 0 0.6 0.2 1.2 0.2 1.8 0 1.4 0.7 2.6 1.3 3.9 0 0 0 0 0.1 0.1 -0.3-0.2-0.7-0.7-1-1.1 -0.6-0.6-1.3-1.2-1.9-1.6 0 0.3 0.3 0.6 0.4 0.9 -0.1 0.1-0.3-0.1-0.3-0.2 -1-0.9-1.9-1.8-3-2.3 0.1-0.1-0.3-0.1-0.2-0.2 -0.1 0-0.1 0-0.2 0 0.1-0.1-0.1-0.1-0.2-0.1 0 0.1 0.1 0.1 0.1 0.2 -0.1-0.1 0 0.1-0.2 0.1 0 0 0.1 0.1 0.1 0.1 -0.1 0-0.1 0.2-0.2 0.1 0 0.1 0.1 0.1 0.1 0.1 -0.1 0.1-0.1 0.1-0.2 0.1 0 0.1 0.1 0.1 0.1 0.2 -0.1 0-0.1 0.1-0.2 0.1 0 0 0.1 0.1 0.1 0.1 -0.1 0-0.1 0.2-0.2 0.1 0 0.1 0.1 0.1 0.1 0.1 -0.1 0-0.1 0.2-0.2 0.1 0 0.1 0.1 0.1 0.1 0.2 -0.1 0-0.1 0.1-0.2 0.1 0 0.1 0.1 0.1 0.1 0.1 -0.1 0-0.1 0.2-0.2 0.1 -0.1 0 0.1 0.1 0.1 0.2 -0.1 0-0.1 0.1-0.2 0.1 0 0.1 0.2 0 0.1 0.2 -0.1-0.1-0.1 0.1-0.3 0.1 0 0.1 0.2 0 0.2 0.1 -0.2 0-0.2 0.2-0.4 0.1 0 0.1 0.2 0 0.2 0.1 -0.2 0-0.2 0-0.3 0.1 0 0.1 0 0.1 0.1 0.1 0 0.1-0.2 0.1-0.2 0.1 0 0.1 0 0.1 0 0.1 -0.2 0-0.2 0.1-0.2 0.2 0 0-0.1 0-0.1 0 0 0.2-0.2 0.2-0.2 0.4 0 0-0.1 0-0.1 0 -0.1 0.1 0 0 0 0.1 0 0-0.1 0-0.1 0 0 0.1 0 0.1 0 0.2 -0.1 0-0.2 0-0.1 0.1 -0.2 0-0.2 0.3-0.3 0.2 -0.5 0.6-1.1 1.2-1.7 1.7 -0.1-1.1-0.1-2.3-0.1-3 0-0.1 0-0.3 0-0.5 0-0.1-0.2-0.5 0-0.4 -0.2-0.2 0-0.4-0.1-0.5 0 0-0.1 0-0.1 0 -0.5 0.9-1.4 2.5-2.1 4 0.1-1.4 0.3-3.5 0.2-4.6 0-0.1 0 0 0.1 0 0-0.6 0-1 0-1.5 0 0 0.1 0 0.1 0 -0.1-0.3 0.1-0.6-0.1-1 0-0.1 0.1-0.1 0.1 0 -0.1-0.3 0-0.5 0-0.8 0-0.1-0.1-0.1-0.1-0.1 0.1 0 0.1-0.1 0.2-0.1 0-0.1-0.1-0.1-0.2-0.2 0 0.1 0 0.1-0.1 0.1 0 0 0.1 0 0.1 0.1 -0.2 0-0.2 0.2-0.2 0.2 -0.1 0.1-0.2 0.2-0.2 0.3 0 0.1-0.1 0-0.1 0.1 0 0.3-0.4 0.6-0.5 0.8 0 0 0.1 0.2-0.1 0.2 -0.6 1.7-2 3.9-2.5 6.3 0.3-2.8 0.7-5.6 0.8-7.6 0-0.1 0-0.1 0-0.2 0-0.1 0.1-0.1 0.1-0.2 0-0.1-0.1-0.6 0.1-0.6 -0.1-0.7 0.2-1 0.1-1.6 0-0.1 0.1-0.1 0.1 0 -0.1-0.2 0.1-0.4 0-0.6 0.1 0 0.1 0 0.1 0 0-0.1-0.1-0.1-0.1-0.2 0 0 0 0 0.1 0 0-0.4-0.1-0.6-0.4-0.8 0-0.2-0.1-0.4-0.2-0.4 0.1-0.1-0.2-0.3-0.2-0.4 0 0 0.1-0.1 0-0.1 0 0-0.1 0-0.1-0.1 -0.1-0.1-0.1-0.5-0.2-0.4 0.1-0.1 0-0.2-0.1-0.2 0-0.3-0.4-0.7-0.6-1.2 0-0.1-0.1 0-0.1 0 0-0.2-0.1-0.3-0.2-0.5 0 0-0.1-0.1-0.1-0.1 0-0.1 0-0.2-0.1-0.3 -0.1-0.2-0.3-0.5-0.5-0.7 0-0.3-0.3-0.4-0.3-0.8 0 0-0.1 0-0.1 0 0-0.2 0-0.3-0.1-0.4 -0.1-0.1-0.2-0.2-0.2-0.4 -0.1-0.2-0.2-0.5-0.3-0.6 0-0.1 0-0.3-0.1-0.2 0.1-0.2-0.2-0.3-0.2-0.6 0 0-0.1 0-0.1 0 -0.1-0.4-0.4-0.5-0.3-0.8 0 0-0.1 0-0.1 0 -0.1-0.2-0.2-0.5-0.3-0.6 -0.1 0 0-0.3-0.1-0.2 0-0.2-0.2-0.6-0.3-0.7 0-0.1-0.2-0.2-0.1-0.3 -0.2-0.1-0.1-0.5-0.4-0.6 0-0.1 0.1-0.2-0.1-0.2 0-0.2-0.1-0.4-0.2-0.5 -0.1-0.1 0-0.2-0.1-0.2 0-0.1-0.1-0.5-0.2-0.5 0-0.3-0.4-0.7-0.5-1.2 0 0-0.1 0-0.1 0 0-0.4-0.3-0.5-0.3-0.8 0 0-0.1 0-0.1 0 0.1-0.1 0-0.2-0.1-0.2 0-0.1 0.1-0.2-0.1-0.1 0-0.1 0-0.1 0-0.1 0 0-0.1 0-0.1 0 -0.1-0.6-0.5-1.1-0.6-1.5 0 0-0.1 0-0.1 0 0-0.1 0-0.3-0.1-0.3 -0.1-0.5-0.4-0.9-0.5-1.4 -1.2-2.6-2.1-5.2-3.1-8.1 -0.4 0.5-0.9 1.8-1.5 2.8 -0.2 0.4-0.5 0.8-0.7 1.1 -0.1 0.2-0.1 0.4-0.3 0.5 0 0 0 0 0.1 0 -0.2 0.1-0.2 0.4-0.3 0.5 -0.1 0.1-0.2 0.3-0.3 0.4 -0.1 0.1-0.1 0.1-0.2 0.2 0 0 0.1 0.1-0.1 0.1 0.1 0.1 0 0.1-0.1 0.1 0.1 0.1-0.1 0.3-0.2 0.3 0.1 0.1 0 0.1-0.1 0.1 0.1 0.1 0 0.1-0.1 0.1 0.1 0.1 0 0.3-0.2 0.3 0.1 0.1 0 0.2-0.1 0.2 0 0 0 0 0.1 0 0 0-0.1 0.1-0.1 0.1 0 0 0 0 0.1 0 -0.2 0.1-0.1 0.3-0.4 0.4 0.1 0 0.1 0.1-0.1 0.1 0 0 0.1 0 0.1 0.1 -0.1 0-0.1 0-0.1 0 0.1 0.1 0 0.2-0.2 0.2 0 0 0.1 0 0.1 0.1 -0.2 0 0 0.1-0.2 0.1 0 0 0 0 0.1 0 0 0.1-0.1 0.1-0.1 0.1 0 0.3-0.3 0.6-0.5 0.9 -0.4 1-1.1 2.4-1.4 3.3 -0.2 0.5-0.4 0.9-0.7 1.3 -0.2 0.6-0.5 1.2-0.8 1.7 0 0 0 0 0.1 0 -0.3 0.3-0.3 0.6-0.5 0.9 0 0 0 0 0.1 0 -0.3 0.3-0.4 0.7-0.5 1 0 0.1 0.1 0.1 0.2 0.1 0 0.1-0.1 0.1-0.1 0.1 0 0.1 0.1 0.1 0.2 0.1 0 0 0 0.1-0.1 0.1 0 0.1 0.2 0.1 0.2 0.2 -0.1 0 0.1 0.1-0.1 0 0 0.1 0.1 0.2 0.2 0.2 0 0.1-0.1 0.1-0.1 0.2 0 0 0.1 0.1 0.1 0.1 0.1 0 0 0.1 0 0.2 0 0.1 0.1 0.1 0.2 0.1 0 0.1-0.1 0.1-0.1 0.2 0 0.1 0.1 0.1 0.2 0.1 0 0.1 0 0.1-0.1 0.2 0.1 0.1 0.2 0 0.2 0.1 0 0 0 0.1-0.1 0.1 0 0.2 0.2 0 0.1 0.2 -0.1 0 0.1 0.1-0.1 0 0 0.1 0.1 0.2 0.2 0.2 0 0.1-0.1 0.1-0.1 0.1 0 0.2 0.1 0.1 0.2 0.1 0 0.1-0.1 0.1-0.1 0.1 0 0.2 0.2 0 0.1 0.2 -0.1 0 0.1 0.1-0.1 0 0 0.1 0.1 0.2 0.2 0.2 -0.2 0.1-0.1 0.2 0 0.3 0 0-0.2 0.2 0.1 0.2 -0.1 0.1-0.1 0.3 0 0.2 0.1 0.1-0.2 0.3 0.1 0.3 -0.1 0.1-0.1 0.3 0.1 0.3 0 0.1-0.1 0.1-0.1 0.1 0 0.1 0 0.2 0.2 0.1 0 0 0 0.1-0.1 0.1 0.2 0.2 0 0.4 0.2 0.5 -0.1 0 0.1 0.1-0.1 0.1 0 0.1 0.1 0.1 0.1 0.1 0 0.1-0.2 0.3 0.1 0.2 -0.1 0.1-0.1 0.3 0.1 0.3 0 0.1-0.1 0.1-0.1 0.1 0 0.1 0.1 0.1 0.2 0.1 0 0 0 0.1-0.1 0.1 0 0.1 0.1 0.1 0.1 0.1 0 0.1-0.1 0.3 0.1 0.2 -0.1 0.1-0.1 0.3 0.1 0.2 0 0 0 0.1-0.1 0.1 0.2 0.1-0.1 0.3 0.2 0.4 -0.1 0.2 0 0.4 0.1 0.5 0 0.2-0.1 0.4 0 0.5 0 0.1-0.1 0.1-0.1 0.2 0.1 0.2-0.1 0.4 0.1 0.5 -0.1 0.1-0.1 0.4 0 0.5 -0.1 0.2 0 0.7 0 0.8 0 0 0 0-0.1 0 0.3 2.2 0 4.4 0.2 6.7 0.2 1.5 0.4 2.9 0.5 4.3 -0.9-4-2.8-7.3-4.2-10.4 0 0-0.1 0-0.1 0 0-0.3-0.1-0.5-0.3-0.6 0 1.4 0.3 3.6 0.7 5.3 -0.8-1.9-1.7-3.7-2.7-5.4 -0.1 0.5 0.1 1 0.1 1.5 0 0-0.1 0-0.1 0 0 0.1 0.1 0.4 0.1 0.6 0.2 2.1 0.3 4.5 0.9 6.9 0.1 0.5 0.3 0.9 0.4 1.3 -0.5-1.1-1-2.1-1.5-3.1 0.1 1.3 0.6 2.6 0.8 3.9 -1.3-3.1-2.8-6-4-9 -0.1 0.1 0 0.2-0.3 0.3 0 0 0 0 0.1 0 0 0 0 0.1-0.1 0.1 0.2 1.3 0.6 2.7 0.8 3.9 -0.4-1.1-0.8-2.2-1.2-3.3 -0.2 0.1-0.1 0.3-0.4 0.4 0.1 0.1 0 0.2-0.2 0.2 0 0 0.1 0 0.1 0.1 -0.2 0-0.2 0.1-0.2 0.2 -0.1 0-0.1 0.1-0.2 0.2 0 0.1-0.2 0.1-0.2 0.1 0 0 0 0.1 0 0.2 0 0.1-0.2 0.1-0.2 0.1 0 0 0 0.1 0 0.2 0 0-0.1 0-0.1 0 0 0 0 0.1 0 0.1 -0.1 0.1-0.1 0.2-0.3 0.3 0 0 0 0 0.1 0 -1.9 2.5-4.3 5.4-6.1 8.6 1.3-2.6 2.9-6.1 3.8-8.6 0.1-0.2 0.1-0.3 0.2-0.4 0-0.2 0.1-0.4 0.3-0.6 -0.1-0.1 0.2-0.2 0.1-0.4 0 0 0.1 0 0.1 0 0-0.5 0.7-0.8 0.2-1.5 -0.1 0-0.1 0-0.2 0 0 0.1 0 0.1 0 0.1 0 0.1-0.1 0.1-0.2 0.1 0.1 0.1-0.3 0.2-0.2 0.4 0 0.1-0.1 0-0.1 0.1 0 0.2-0.2 0.3-0.3 0.4 -0.3 0.4-0.5 0.8-0.8 1.2 0 0-0.1 0-0.1 0.1 -0.4 0.5-0.8 1.2-1.3 1.8 -0.7 0.8-1.5 1.8-2.1 2.8 0-0.3 0.3-0.6 0.3-0.9 -0.2 0.1-0.4 0.5-0.6 0.7 -0.2 0.4-0.5 0.9-0.7 1.3 0 0-0.1 0.2-0.1 0 0.8-1.7 1.7-3.7 2.3-5.4 -1.1 1.3-2.2 2.6-2.9 4.3 1-2.9 2.8-5.9 3.5-8.1 0.3-0.4 0.4-1 0.8-1.5 0 0 0-0.1 0-0.1 0.2 0 0-0.2 0.2-0.2 0 0 0-0.1 0-0.1 0.3-0.4 0.3-0.9 0.7-1.3 0 0 0 0-0.1 0 0.4-0.5-0.1-1.4-0.4-2.3 -0.1-0.5-0.2-1.1-0.3-1.5 -2.3-9.3-4.1-17.6-5.7-27 -0.7-4.1-1.4-8.5-2.1-13.1 -0.7-4.5-1.4-9-2-13.9 -0.1-0.7-0.2-1.6-0.2-2.5 0.1-0.1 0 0.2 0 0.1 0.3 1.9 0.8 3.6 1.2 5.4 -0.4-3.2-1.1-6.3-1.4-10 0 0 0.2 0 0.1-0.1 0.4 0.4 0.6 1.5 0.8 2.2 0.3 1.3 0.7 2.7 0.9 3.9 -0.2-2.3-0.5-4.8-0.7-8.2 -0.1-0.9-0.2-2.1 0-3 0.5 1.2 0.7 2.4 0.9 3.7 1.2 5.9 2.3 10.8 3.5 15.7 0.3 1.5 0.7 3.1 1.2 4.6 0.2 1.2 0.5 2.2 0.9 3.4 0 0.2 0 0.4 0.2 0.5 -0.1 0.1-0.1 0.2 0.1 0.2 -0.1 0.1-0.1 0.2 0.1 0.2 -0.3 0.1 0.2 0.2 0 0.4 0 0.1 0.1 0.1 0.1 0.1 -0.2 0.1 0.2 0.2 0 0.3 0 0.1 0.1 0.1 0.1 0.1 0 0.1 0 0.1-0.1 0.1 0 0.1 0.2 0.1 0.1 0.2 0 0.1 0 0-0.1 0 0 0.1 0 0.2 0.1 0.1 -0.2 0.1 0.2 0.2 0 0.3 0.2 0.1 0 0.2 0.2 0.4 0 0.1-0.1 0.2 0.1 0.2 0 0.1-0.1 0.3 0.1 0.2 -0.2 0.1 0.1 0.2 0 0.3 0 0.1 0 0.2 0.1 0.1 -0.1 0.1-0.1 0.2 0.1 0.2 -0.2 0.1 0.2 0.3 0 0.3 0 0.1 0.2 0.2 0.1 0.3 0 0.1 0.1 0.1 0.1 0.1 0 0.1-0.1 0.3 0.1 0.2 0 0 0 0.1-0.1 0.1 0 0.1 0 0.2 0.1 0.1 0-0.3 0-0.4-0.1-0.7 -0.5-2.8-1.2-5.7-1.7-8.7 -0.1-0.5-0.2-1.1-0.3-1.6 -1.5-6.8-2.9-14.1-4.4-21.7 0.5 1.4 0.9 2.8 1.3 4.3 -0.1-1.1-0.5-2.3-0.5-3.6 1.6 5.6 3 11.2 4.4 16.4 0.4 1.4 0.6 2.8 1.2 4.1 0 0.1 0.1 0.3 0.1 0.4 0.2 0.9 0.7 1.8 1 2.7 0.7 2.1 1.4 4 2.1 5.9 0.7 2 1.4 4 2.2 6.2 0.3 0.8 0.6 1.6 1 2.6 0 0.2 0.1 0.2 0.1 0.4 0 0.1 0.1 0.1 0.2 0.1 -0.1 0.1-0.1 0.2 0.1 0.2 -0.1 0.1-0.1 0.2 0.1 0.2 -0.1 0.1-0.1 0.2 0.1 0.2 0 0.1-0.1 0-0.1 0.1 0.2 0.1 0 0.3 0.2 0.3 -0.1 0.1-0.1 0.2 0.1 0.2 -0.1 0.1-0.1 0.2 0.1 0.2 -0.1 0.1-0.1 0.2 0.1 0.2 0 0-0.1 0.1-0.1 0.1 0.1 0 0.1 0.1 0.2 0.1 -0.1 0.1-0.1 0.2 0.1 0.2 0 0.1-0.1 0.1-0.1 0.1 0.2 0.1 0 0.3 0.2 0.3 -0.1 0.1-0.1 0.2 0.1 0.2 -0.1 0.1-0.1 0.2 0.1 0.2 0 0.1-0.1 0.1-0.1 0.1 0 0 0.3 0.1 0.1 0.2 0 0.1 0.1 0.1 0.2 0.1 -0.1 0.1-0.1 0.2 0.1 0.2 -0.1 0.1 0 0.3 0.1 0.2 0 0.1-0.1 0-0.1 0.1 0 0.1 0.1 0.1 0.2 0.1 0 0.1-0.1 0.1-0.1 0.1 0 0.1 0.1 0.1 0.2 0.1 -0.1 0.2 0 0.2 0.1 0.3 0 0 0 0 0 0C360.4 129.1 360.4 129.3 360.6 129.2zM352.3 118.1c-0.1 0.1 0.1 0.2 0.2 0.1 -0.1-0.1-0.1-0.2-0.1-0.4 -0.1 0 0 0.1-0.1 0.1 0 0.1 0.1 0.1 0.1 0.1C352.3 118.1 352.5 118.2 352.3 118.1zM352.4 118.5c0.1 0 0.1 0 0.1 0 0-0.1 0-0.2 0-0.2C352.5 118.4 352.4 118.4 352.4 118.5zM352.4 118.7c0.1 0 0 0.1 0.1 0.1 0 0 0-0.1 0-0.2C352.5 118.6 352.5 118.6 352.4 118.7zM374.9 124.8c0.1 0.3 0.3 0.6 0.5 0.9 0.1-0.2 0.4-0.4 0.5-0.6 -0.2-0.3-0.3-0.8-0.6-1.1C375.2 124.3 375 124.5 374.9 124.8zM373 128.7c0.6-0.8 1.2-1.4 1.8-2.2 -0.1-0.2-0.2-0.6-0.3-0.9C374 126.6 373.4 127.7 373 128.7zM375.9 126.7c0.2-0.2 0.3-0.4 0.4-0.7 0 0 0 0-0.1 0C376.1 126.2 375.7 126.3 375.9 126.7zM376.5 127.7c1.2 2 2.3 4.2 3.4 6.1 0.1-0.1 0-0.3-0.1-0.1 0-0.3-0.1-0.3-0.2-0.6 -0.9-2-1.9-3.9-2.9-6.1C376.7 127.3 376.5 127.5 376.5 127.7zM374.6 128.8c0.2-0.3 0.7-0.6 0.5-1.1C375 128.1 374.8 128.4 374.6 128.8zM355.8 151.7c-0.2 0 0-0.2-0.1-0.2C355.7 151.6 355.7 151.8 355.8 151.7zM357.1 158.7c-0.1 0 0-0.1-0.1-0.1 0 0.1-0.1 0.2-0.2 0.2 0 0 0.1 0 0.1 0.1 0 0-0.1 0-0.2 0 0.1 0.1 0 0.2 0 0.4 0.1-0.1 0.2-0.2 0.2-0.5 0 0 0.1 0 0.1 0C356.9 158.7 357 158.8 357.1 158.7z" class="b"/>
    <path style="fill: #FFF" d="M321.4 96.6c3.5 1.1 6.4 3 8.9 5.4 1.2 1.2 2.2 2.5 3.3 3.9 1 1.3 2 2.9 2.7 4.2 -1.4-2-3.4-3.8-5.1-5.6 -1.7-1.8-3.6-3.5-5.6-5C324.2 98.5 322.7 97.7 321.4 96.6z" class="b"/>
    <path style="fill: #FFF" d="M308.6 97.1c0.9 0 2.6-0.3 3.8 0.7 1 0.1 2.2 0.2 3.1 0.4 0 0 0-0.1 0-0.1 0 0.1 0.1 0.1 0.1 0.1 0 0 0-0.1 0-0.1 0.1 0.1 0.2 0.2 0.2 0 0.3 0.2 0.7 0.1 1.1 0.3 0.1-0.1 0.2-0.1 0.3 0 0.2 0.1 0.6 0.2 0.7 0.2 0-0.1 0.3 0.1 0.5 0.1 0.4 0.1 0.8 0.2 1.2 0.4 0.2 0.1 0.3 0 0.5 0.1 0.5 0.2 1.2 0.4 1.6 0.6 0 0 0 0 0 0.1 0.6 0.3 1.3 0.6 1.7 0.9 0.1 0.1 0.2 0.3 0.2 0.1 0.1 0.1 0.1 0.2 0.2 0.2 0-0.2 0.1 0.1 0.2 0.1 0.1 0 0-0.2 0.1-0.1 -0.1 0.1 0.1 0.1 0.1 0.2 0 0 0-0.1 0-0.1 0.1 0 0.1 0.2 0.2 0.2 0 0 0-0.1 0-0.1 0.1 0.1 0.1 0.2 0.1 0.2 0.1 0 0-0.1 0.1-0.1 0.1 0.1 0 0.1 0.1 0.2 0.1 0 0-0.2 0.1-0.1 0 0.1 0 0.2 0.1 0.2 0 0 0-0.1 0-0.1 0.1 0 0.1 0.2 0.2 0.2 0 0 0-0.1 0-0.1 0.1 0.1 0.1 0.2 0.2 0.2 0.1 0 0-0.1 0-0.1 0.1 0.1 0.1 0.2 0.1 0.2 0 0 0-0.1 0.1-0.1 0 0.1 0.1 0.1 0.1 0.2 0.1 0 0-0.1 0.1-0.1 -0.1 0 0.1 0.3 0.1 0.1 0.1 0.1 0.1 0.2 0.1 0.2 0 0 0.1-0.1 0.1-0.1 0.1 0.1 0.1 0.2 0.1 0.2 0 0 0-0.1 0.1-0.1 0 0.1 0.1 0.2 0.1 0.2 0.1-0.2 0.1 0.1 0.2 0.1 0-0.2 0.1 0.1 0.2 0.2 0 0 0-0.1 0.1-0.1 0 0.1 0.1 0.2 0.1 0.2 0.1-0.2 0.1 0.1 0.2 0.2 0 0 0-0.1 0.1-0.1 0 0.1 0.1 0.1 0.1 0.2 0.2 0 0.1 0 0.2 0.2 0.2-0.1 0.1 0.3 0.4 0.2 0 0.1 0 0.1-0.1 0.1 0.1 0.1 0.1 0 0.3 0.1 0 0.1-0.1 0.1-0.1 0.1 0.1 0.1 0.2 0 0.3 0.1 0 0.1-0.1 0.1-0.1 0.1 0.1 0.1 0.2 0 0.3 0.1 0 0.1-0.1 0.1-0.1 0.1 0.1 0.1 0.1 0 0.3 0.1 0 0.1-0.1 0.1-0.1 0.2 0.1 0 0.2 0 0.3 0 0 0.1-0.1 0.1-0.1 0.1 0 0.2 0.2 0 0.3 0.2 0 0.1-0.1 0-0.2 0 0 0.1 0.2 0.1 0.3 0.1 0 0.1-0.1 0.1-0.2 0.1 0 0.2 0.2 0 0.4 0.1 0 0.1-0.1 0.1-0.1 0.1 0 0.2 0.2 0 0.4 0.1 0 0 0 0.1 0 0.1 -0.1 0.1-0.1 0-0.2 0.1 0.1 0.1 0.3 0 0.4 0.1 0 0.1-0.1 0.1-0.1 0.1 0.1 0.1 0.3 0 0.4 0.1 0 0 0 0 0 0 0 0 0 0 0 0 0 0.1-0.1 0-0.1 0.1 0.1 0.1 0.2 0 0.3 0.1 0 0.1-0.1 0.1-0.1 0.1 0.1 0.1 0.2 0 0.3 0.1 0 0.1-0.1 0.1-0.1 0.1 0.1 0.1 0.2 0 0.3 0.1 0 0.1-0.1 0.1-0.1 0.1 0.1 0.1 0.1 0 0.2 0.1 -0.2 0.2 0 0.2 0.2 0.2 0 0.1-0.1 0-0.1 0.1 0.1 0 0.1 0.1 0.2 0.1 -0.1 0.1 0 0 0 0.1 0 0 0.1 0 0.2 0.1 -0.1 0.2 0 0.2 0.2 0.2 0 0.1 0 0.1 0 0.1 0.1 0.1 0.2 0.1 0.2 0.1 0 0 0 0.1-0.1 0.1 0.1 0.1 0.1 0.1 0.2 0.1 0 0.1-0.1 0.1-0.1 0.1 0 0.1 0.1 0.1 0.2 0.1 0 0.1 0 0.1 0 0.1 0.1 0 0.1 0.1 0.2 0.1 0 0 0 0.1 0 0.2 0.1-0.2 0 0.1 0.2 0 0 0.1-0.1 0.1-0.1 0.1 0.1 0.1 0.2 0.1 0.2 0.1 0 0 0 0.1-0.1 0.1 0.1 0.1 0.1 0.1 0.2 0.1 0 0.1-0.1 0.1-0.1 0.2 0.1-0.2 0.1 0.1 0.2 0.1 0 0 0 0.1-0.1 0.1 0 0.1 0.1 0.1 0.2 0.1 -0.1 0.1 0.1 0.1-0.1 0.1 0.1 0 0.1 0.1 0.2 0.1 0 0 0 0.1-0.1 0.1 0 0.1 0.2 0.1 0.2 0.1 0 0 0 0.1-0.1 0.1 0 0.1 0.1 0.1 0.2 0.1 0 0.1-0.1 0.1 0 0.1 0 0.1 0 0-0.1 0 0 0.1 0.1 0.1 0.2 0.1 0 0.1-0.1 0.1-0.1 0.1 0.1 0.1 0.1 0.1 0.2 0.1 0 0.1-0.1 0.1-0.1 0.1 0.1 0 0.1 0.1 0.2 0.1 0 0.1-0.1 0.1-0.1 0.1 0 0 0.2 0.1 0.2 0.1 0.1 0 0 0.1 0 0.2 0 0.1 0.1 0.1 0.2 0.1 0 0.1 0 0.1-0.1 0.2 0 0.1 0.1 0.1 0.2 0.1 0 0.1 0 0.1-0.1 0.2 0 0.1 0.1 0.1 0.2 0.1 0 0.1-0.1 0.1 0 0.1 0 0.1-0.1 0-0.1 0 0 0.1 0.1 0.1 0.2 0.1 0 0.1 0 0.1-0.1 0.2 0 0.1 0.1 0.1 0.2 0.1 0 0.1 0 0.1-0.1 0.2 0.1 0 0.1 0.1 0.2 0.1 0 0.1-0.1 0.1-0.1 0.1 0 0.1 0.2 0.1 0.2 0.1 0 0.1-0.1 0.1-0.1 0.1 0 0.1 0.1 0.1 0.2 0.1 0 0.1 0 0.1-0.1 0.2 0.1 0 0.1 0.1 0.2 0.1 0 0 0 0.1-0.1 0.1 0.1 0.1 0.1 0.1 0.2 0.1 0 0.1-0.1 0.1-0.1 0.1 0.1 0 0.1 0.1 0.2 0.1 0 0.1-0.1 0.1-0.1 0.2 0.1 0 0.1 0.1 0.2 0.1 0 0.1-0.1 0.1-0.1 0.2 0 0.1 0.1 0.1 0.2 0.1 0 0.1 0 0.1-0.1 0.2 0.1 0.1 0.1 0.1 0.2 0.1 0 0.1-0.1 0.1-0.1 0.1 0.1 0 0.1 0.1 0.2 0.1 0 0.1-0.1 0.1-0.1 0.1 0.1 0 0.1 0.1 0.2 0.1 0 0.1-0.1 0.1 0 0.1 0 0.1 0 0-0.1 0 0 0.1 0.1 0.2 0.1 0.1 0.1 0.1 0 0.1 0 0.2 0.1 0 0.1 0.1 0.2 0.1 0 0.1-0.1 0.1-0.1 0.2 0.1 0 0.1 0.1 0.2 0.1 0 0.1-0.1 0.1-0.1 0.2 0 0 0.2 0.1 0.2 0.1 0.1 0 0 0.2-0.1 0.1 0.1 0.1 0.1 0.2 0.2 0.1 0 0.1 0 0.1-0.1 0.2 0 0 0.1 0.1 0.2 0.1 0 0.1-0.1 0.1 0 0.1 0 0.1-0.1 0-0.1 0 0 0.1 0.1 0.1 0.2 0.1 0 0 0 0.1-0.1 0.1 0.1 0.1 0.1 0.2 0.2 0.1 0 0.1-0.1 0.1-0.1 0.2 0.1 0 0.1 0.1 0.2 0.1 0 0.1-0.1 0.1-0.1 0.2 0 0 0.1 0.1 0.2 0.1 0 0.1-0.1 0.1-0.1 0.1 0 0.1 0.1 0.2 0.1 0.1 0.1 0 0.1 0.2 0 0.1 0 0.1 0.1 0.1 0.2 0.1 0 0.1-0.1 0.1 0 0.1 0 0.1-0.1 0-0.1 0 0.1 0.1 0.1 0.2 0.2 0.1 0 0.1-0.1 0.1-0.1 0.2 0 0.1 0.1 0.1 0.2 0.1 0 0.1-0.1 0.1 0 0.1 0 0.1 0 0-0.1 0 0 0.1 0 0.2 0.2 0.2 0 0.1-0.1 0.1-0.1 0.2 0 0 0.1 0.1 0.1 0.1 0 0 0.1 0.2 0 0.1 0 0.1 0.1 0.1 0.2 0.1 0 0.1-0.1 0.1-0.1 0.2 0.1 0.1 0.1 0.1 0.2 0.1 0 0 0 0.1-0.1 0.1 0 0.1 0.1 0.1 0.2 0.1 0 0.1-0.1 0.1-0.1 0.2 0 0.1 0.1 0.1 0.2 0.1 -0.1 0.2 0 0.3 0.1 0.3 0 0 0 0.1-0.1 0.1 0 0.1 0.1 0.2 0.2 0.1 0 0.1-0.1 0.1-0.1 0.2 0 0.1 0.1 0.1 0.2 0.1 0 0.1-0.1 0.1-0.1 0.2 0.1 0 0.1 0.1 0.2 0.1 0 0 0 0.1-0.1 0.1 0 0.1 0 0.2 0.2 0.1 0 0.1 0 0.1-0.1 0.2 0 0.1 0 0.1 0.1 0.1 0 0.1-0.1 0.1 0 0.1 0 0.1 0 0-0.1 0 0 0.2 0.1 0.2 0.2 0.2 0 0.1-0.1 0-0.1 0.1 0 0.1 0 0.1 0.1 0.1 0 0.1-0.1 0.2 0.1 0.3 0.9 3.2 1.8 7.1 2.2 11.1 0.1 1.3 0.2 2.7 0.2 4.1 0.2 4.2-0.6 7.9-1 11.3 -0.1 0.6-0.2 1.2-0.3 1.8 0 0 0 0.4 0 0.1 0.9-6.2 1-13.5 0.2-19.9 0 0-0.1 0-0.1 0 0 0.2 0.1 0.3 0 0.3 0 0.1 0 0.1 0.1 0.1 0 0.1-0.1 0.1-0.1 0.2 0 0 0 0.1 0.1 0.1 0 0.1 0 0.1-0.1 0.1 0 0 0.1 0 0 0.1 0 0.1 0.1 0.2 0 0.2 0 0 0.1 0.2 0 0.4 0 0 0 0.1 0.1 0.1 0 0.1-0.1 0.1-0.1 0.2 0 0 0 0.1 0.1 0.1 -0.1 0.2-0.1 0.4 0 0.6 -0.1 0.3 0 0.7-0.1 0.9 0.1 0.1 0.1 0.6 0 0.8 0.1 0 0 0.4 0 0.6 0.1 0-0.1 0.6-0.1 0.8 0 0 0.1 0 0.1 0 0 0.3-0.1 0.7-0.2 1 0 0.2 0 0.5 0 0.6 0 0.2-0.1 0.3-0.1 0.5 -0.1 0.6-0.2 1.3-0.3 1.8 -0.2 0.1 0 0.2-0.1 0.2 0 0.1-0.1 0.1-0.1 0.1 0 0 0.1 0.1 0.1 0.1 0 0.1-0.2 0.1-0.1 0.3 -0.1 0-0.1 0.2-0.1 0.1 -0.1 0 0 0.1 0.1 0.1 0 0.1-0.1 0.1-0.2 0.1 0.1 0.1 0 0.2-0.1 0.3 0 0 0 0.1 0.1 0.1 0 0.1-0.1 0.1-0.2 0.1 0.1 0.3-0.2 0.5 0 0.7 -0.1 0.6-0.2 1.3-0.3 1.9 0 0.1-0.1 0.1-0.1 0.1 0 0 0.1 0.1 0 0.1 0 0.1 0 0.2 0 0.2 0 0.1-0.1 0.1-0.1 0.1 0 0.1 0.1 0.3-0.1 0.3 0.1 0.1 0.1 0.2-0.1 0.3 0.1 0.1 0 0.4-0.2 0.5 0.1 0.1 0 0.2-0.1 0.3 0 0 0 0.1 0.1 0.1 0 0.1-0.1 0.1-0.2 0.1 0 0.1 0.1 0.1 0.1 0.2 -0.1-0.1-0.1 0.2-0.1 0.1 -0.1 0 0 0.1 0.1 0.1 0 0.1-0.1 0.2-0.2 0.1 0 0 0.1 0.1 0.1 0.1 0 0.1-0.1 0.1-0.2 0.1 0 0.1 0.1 0.1 0.1 0.2 -0.1 0-0.1 0.1-0.2 0.1 0 0.1 0.1 0.1 0.1 0.2 -0.1 0-0.1 0.1-0.2 0.1 0 0.1 0.1 0.1 0.1 0.2 -0.1 0-0.1 0.1-0.2 0.1 0 0 0.1 0.1 0.1 0.1 -0.1 0-0.1 0.2-0.2 0.1 0.1 0 0.1 0.1 0.1 0.1 -0.1 0-0.1 0.1-0.2 0.1 0 0 0 0.1 0.1 0.1 -0.1 0-0.1 0.1-0.2 0.1 0 0.1 0.1 0.1 0.1 0.2 -0.1 0-0.1 0.1-0.2 0.1 0 0.1 0.1 0.1 0.1 0.2 -0.1 0-0.1 0.1-0.2 0.1 0 0.1 0.1 0.1 0.1 0.2 -0.1 0-0.1 0.1-0.2 0 0 0.1 0.1 0.1 0.1 0.1 -0.1 0.1-0.2 0.2-0.3 0.1 0 0.1 0.1 0.1 0.1 0.1 -0.1 0-0.2 0.1-0.3 0.1 0 0.1 0.1 0.1 0.1 0.2 -0.1 0-0.1 0.1-0.2 0.1 0 0.1 0.1 0.1 0.1 0.2 -0.1-0.1-0.1 0.1-0.2 0 0 0.1 0 0.1 0.1 0.1 -0.1 0-0.2 0.1-0.2 0.1 0 0.1 0.1 0.1 0.1 0.1 0 0.1-0.2 0.1-0.3 0.1 0 0 0 0.1 0 0.1 0 0.1 0.1 0 0.1 0.1 -0.2 0-0.1 0.1-0.3 0 0 0.1 0.1 0.1 0.1 0.1 -0.1 0-0.2 0.1-0.3 0.1 0 0.1 0.1 0 0.1 0.2 -0.1 0-0.2 0-0.3 0 0 0 0 0.1 0 0.1 0 0.1 0.1 0 0.1 0.1 -0.1 0-0.2 0-0.3 0 0 0 0 0.1 0 0.1 0 0.1 0.1 0 0.1 0.1 -0.1 0.1-0.2 0.1-0.3 0.1 0 0 0 0.1 0 0.1 0 0.1 0.1 0 0.1 0.1 -0.1 0.1-0.2 0.1-0.3 0.1 0 0 0 0.1 0 0.1 0 0.1 0.1 0 0.1 0.1 -0.1 0.1-0.2 0.1-0.3 0.1 0 0.1 0.1 0.1 0.1 0.1 -0.1 0.1-0.3 0-0.3 0.1 0 0.1 0.2-0.1 0.1 0.1 -0.1 0-0.2 0-0.3 0.1 0 0.1 0.2 0 0.1 0.1 -0.1 0-0.3 0.1-0.3 0 0 0.1 0.1 0.1 0.1 0.1 -0.1 0.1-0.3 0-0.3 0.1 0 0.1 0.2-0.1 0.1 0.1 -0.1 0-0.2 0-0.3 0 0 0.1 0.1 0 0.1 0.1 -0.1 0.1-0.3 0-0.4 0.1 0 0.1 0.2-0.1 0.1 0.1 -0.1 0-0.3 0.1-0.3 0 0 0 0 0.1 0 0.1 0 0.1 0.2 0 0.2 0.1 -0.1 0.1-0.2 0-0.4 0.1 0 0.1 0.2 0 0.1 0.2 0 0-0.3 0-0.3 0 0 0.1 0.2 0 0.1 0.1 -0.1 0-0.3 0-0.3 0 0.1 0.1 0.2 0 0.2 0.1 -0.1 0-0.3 0-0.4 0 0.1 0.1 0.2 0 0.2 0.1 -0.1 0-0.3 0-0.4 0 0 0.1 0.2 0 0.2 0.1 -0.1 0-0.3 0-0.4 0 0 0.1 0.2 0 0.2 0.1 -0.1 0-0.3 0-0.4 0 0 0.1 0.2 0 0.2 0.1 -0.1 0.1-0.2 0-0.4 0.1 0 0 0.1 0 0.2 0.1 -0.1 0.1-0.3 0-0.4 0.1 0 0.1 0.2 0 0.2 0.1 0 0.1-0.3 0-0.4 0.1 0 0.1 0.2 0 0.2 0.1 -0.1 0-0.3 0-0.3 0 0 0.1 0.2 0 0.1 0.2 -0.1 0-0.2-0.1-0.3 0 0 0.1 0.1 0 0.1 0.1 -0.1 0-0.2 0-0.3 0 0 0 0.1 0 0.1 0.1 -0.1-0.1-0.2 0.1-0.2 0.1 -1 0.7-1.9 1.5-2.9 2.1 -1.9 1.2-4 2.2-6.2 3.1 -0.5 0.2-1.2 0.4-1.8 0.6 -2.4 0.8-4.8 1.7-7.4 2 -1.6 0.2-3.2 0.7-4.9 0.8 -0.1 0-0.2-0.1-0.3 0 -0.5 0-1.1 0.1-1.7 0 0 0 0-0.1 0-0.1 -0.4 0-1 0.1-1.3 0.1 -1.2-0.1-1.9-0.1-3.1-0.2 0.1-0.1-0.3 0-0.4 0 -0.1 0-0.1-0.1-0.2-0.1 -0.1 0-0.1 0-0.3 0 -0.5-0.1-1.1-0.1-1.5-0.2 0 0 0-0.1 0-0.1 -0.1 0.1-0.4 0-0.4-0.1 0 0-0.1 0-0.2 0 0 0 0.1 0.1 0.1 0.1 0 0 0 0 0-0.1 0.6 0.4 1.5 0.5 2 0.8 -3.1-0.8-6.4-1.5-9.2-2.6 -4-1.7-7.5-3.9-9.8-7 -0.5-0.6-0.9-1.3-1.1-2.1 -0.1-0.1-0.1-0.1-0.1-0.2 0 0 0.2 0.2 0.1 0.3 0.1 0 0 0 0.1 0.1 0.5 1 1.2 1.7 1.9 2.5 2.5 2.3 6.1 3.8 9.6 5.3 -0.1-0.1-0.4-0.1-0.3-0.2 -0.4-0.1-0.7-0.3-0.9-0.5 -0.1 0-0.1-0.1-0.2 0 -0.1 0 0-0.1-0.1-0.2 -0.1 0.1-0.1 0-0.2 0 0-0.1-0.1-0.1 0-0.1 -0.1 0.1-0.2-0.1-0.2 0 0 0 0-0.1 0-0.1 -0.1 0.1-0.1-0.1-0.2 0 0.1-0.1 0 0 0-0.1 -0.1 0.1-0.1 0-0.2 0 0-0.1 0-0.1 0-0.2 -0.1 0.1-0.1 0-0.2 0 0 0 0-0.1 0-0.1 -0.2 0-0.2 0-0.2-0.2 -0.1 0.1-0.1 0-0.2 0 0 0 0-0.1 0-0.1 -0.1 0-0.2 0-0.2-0.2 -0.2 0.1-0.2 0-0.2-0.1 0 0-0.3 0-0.2-0.2 -0.1 0.1-0.2 0-0.2-0.2 -0.1 0.1-0.1 0-0.2 0 0 0 0-0.1 0-0.1 -0.1 0-0.3-0.1-0.2-0.2 -0.1 0-0.1 0-0.1 0 0-0.1-0.1-0.1-0.1-0.2 -0.1 0-0.1 0-0.2 0 -0.1-0.1 0 0 0-0.1 -0.1 0-0.3-0.1-0.2-0.2 -0.1 0-0.1 0-0.1 0 0-0.1-0.1-0.1-0.1-0.2 -0.1 0-0.2 0-0.2-0.2 -0.2 0.1-0.1-0.3-0.4-0.2 0-0.1-0.1-0.1 0-0.2 -0.1 0-0.1 0-0.2 0 0-0.3-0.3-0.1-0.2-0.4 -0.1-0.1 0 0-0.1 0 0-0.1-0.1-0.1-0.1-0.2 -0.1 0-0.3-0.2-0.4-0.4 0-0.1-0.1 0.1-0.1 0 0.1-0.2-0.1 0 0-0.2 -0.1 0-0.2 0-0.2-0.2 -0.1-0.1-0.1 0-0.2 0 0-0.1 0-0.2-0.1-0.2 -0.1-0.1 0-0.3-0.2-0.2 0-0.1 0-0.1-0.1-0.2 0 0-0.1 0-0.1 0 0-0.1 0-0.1-0.1-0.3 0 0-0.1 0-0.1 0 0-0.1-0.1-0.2 0-0.2 -0.1 0-0.1 0-0.1 0 0-0.1-0.1-0.2 0-0.2 -0.1 0-0.1 0.1-0.1 0 0-0.1 0-0.3-0.1-0.2 0-0.1 0-0.1-0.1-0.2 -0.1 0.1 0 0-0.1 0 0-0.2-0.1-0.4-0.3-0.5 0.1-0.1-0.1-0.2-0.1-0.2 0-0.1 0-0.3-0.1-0.2 0-0.1 0-0.3-0.2-0.3 0-0.1 0-0.2-0.1-0.2 0.1-0.1 0-0.2-0.1-0.2 0.1-0.2 0-0.2-0.1-0.2 0.1-0.1 0-0.2-0.1-0.2 0-0.2-0.1-0.4-0.2-0.5 0-0.3-0.1-0.4-0.3-0.5 0.1-0.1-0.1-0.2 0-0.2 -0.2 0.1 0-0.3-0.2-0.2 0-0.2-0.1-0.4-0.2-0.5 -0.2-0.1 0.1-0.3-0.2-0.3 0-0.1 0.1-0.4-0.1-0.2 0-0.2 0-0.2 0-0.3 -0.2 0.1-0.1-0.1-0.1-0.2 0 0-0.1 0-0.1 0 -0.1-0.1 0.1-0.4-0.1-0.3 0-0.1 0-0.2 0.1-0.2 0-0.1-0.1-0.2-0.2-0.1 0-0.1 0-0.2 0.1-0.1 0-0.1 0-0.1 0-0.1 -0.1 0-0.1 0-0.1 0 0.1 0-0.1-0.2 0.1-0.2 0-0.1-0.1-0.1-0.1-0.1 0 0-0.1 0.1-0.1 0.1 -0.1 1.8-0.1 4.2 0.1 5.7 -0.5-2.3-0.5-4.9-0.6-7.6 0 0 0 0 0 0 -0.1-0.1 0.1-0.2 0-0.3 0-0.1-0.1 0.1-0.1 0 -0.1-0.2 0.1-0.2 0.1-0.3 0-0.1-0.1 0-0.2 0 0-0.1 0.1-0.1 0-0.1 0 0 0.1 0 0.1 0 0 0 0-0.1 0-0.1 0-0.1-0.1 0.2-0.2 0 0-0.1 0.1-0.2 0.1-0.3 0-0.1-0.1 0-0.2 0 0-0.2 0.1-0.2 0.1-0.3 -0.1-0.1-0.1 0.1-0.2 0 0 0 0.1-0.1 0-0.1 0-0.1 0.1-0.1 0.1 0 0-0.1 0-0.1 0-0.2 -0.1-0.1-0.1 0.1-0.2 0.1 0-0.2 0.1-0.2 0.1-0.3 -0.1 0-0.1 0-0.1 0.1 -0.1 0 0-0.2-0.1-0.1 0.1-0.1 0.1 0 0.1-0.2 0-0.1-0.1 0-0.1 0 -0.1 0-0.1-0.1-0.1-0.2 0.1 0 0.1-0.1 0.1-0.1 -0.1-0.1-0.1 0.1-0.2 0 0-0.1 0-0.1 0-0.2 0.1 0 0.1-0.1 0.1-0.1 -0.1-0.1-0.1 0.1-0.2 0 0-0.1 0-0.1 0-0.2 0.2 0 0-0.1 0.1-0.1 -0.1-0.1-0.1 0.1-0.2 0 0-0.1 0-0.1 0-0.2 0.2 0 0-0.1 0.1-0.1 -0.1-0.1-0.1 0.1-0.2 0 0-0.1 0-0.1 0-0.2 0.2 0 0-0.1 0.1-0.1 -0.1-0.1-0.1 0.1-0.2 0 0-0.1 0-0.1 0-0.2 0.1 0 0.1-0.1 0.1-0.2 0 0-0.1 0.1-0.1 0.1 -0.1-0.1 0-0.2 0.1-0.3 0-0.1-0.1 0.1-0.1 0 0-0.2 0-0.2 0.1-0.3 0-0.1-0.1 0-0.2 0 0-0.2 0.1-0.2 0.1-0.3 0-0.1-0.1 0.1-0.1 0 0.1-0.1 0-0.1 0-0.2 0.1 0 0.1 0 0.1-0.1 0-0.1 0 0-0.1 0 0-0.1 0-0.1 0-0.2 0.1 0 0.1 0 0.1 0 -0.1 0 0-0.2-0.2-0.2 0.2-0.1 0.1-0.2 0-0.3 0-0.1 0.1 0 0.1-0.1 -0.3-0.3 0.1-0.3-0.2-0.5 0-0.1 0.1 0 0.1-0.1 0-0.1-0.1-0.1-0.2-0.2 0-0.1 0.1 0 0.1-0.1 0-0.1-0.1-0.1-0.1-0.2 0.2-0.1 0.1-0.2 0-0.3 0.2 0 0.1-0.2 0-0.3 0-0.1 0.2 0 0.1-0.1 0-0.1-0.1-0.1-0.1-0.2 0.2-0.1 0.1-0.2 0-0.3 0-0.1 0.2 0 0.1-0.1 0-0.1-0.1-0.1-0.1-0.2 0.2-0.1 0-0.2 0-0.3 0.2 0 0-0.2 0-0.3 0.3 0 0-0.2 0-0.3 0 0 0.2-0.2 0-0.3 0.1 0 0.1-0.1 0.1-0.1 0-0.1-0.1-0.1-0.2-0.1 0-0.1 0.1-0.1 0.2-0.1 0-0.1-0.1-0.1-0.2-0.1 0-0.1 0.1-0.1 0.2-0.1 0-0.1-0.1-0.1-0.2-0.1 0-0.1 0.1 0 0.2-0.1 0-0.1-0.2 0-0.1-0.2 0.1 0 0.1-0.1 0.1-0.1 0-0.1-0.1-0.1-0.1-0.2 0.1 0 0.1-0.1 0.2-0.1 0-0.1-0.1-0.1-0.1-0.2 0.1 0.1 0.1 0 0.1-0.1 0-0.1-0.1-0.1-0.1-0.1 0.1 0 0.1-0.1 0.1-0.1 0-0.1-0.1-0.1-0.1-0.2 0.2 0 0.1-0.2 0-0.2 0.1 0 0.1-0.1 0.1-0.1 0-0.1-0.1-0.1-0.1-0.2 0.1 0 0.1-0.1 0.1-0.1 0 0-0.1-0.1-0.1-0.1 0-0.1 0.1-0.1 0.2-0.1 0-0.1-0.1-0.1-0.1-0.1 0.2-0.1 0.1-0.2 0-0.3 0.1 0.1 0.1 0 0.1-0.1 0-0.1-0.1-0.1-0.1-0.2 0.2 0 0.1-0.2 0-0.2 0.1 0 0.1-0.1 0.2-0.1 0-0.1-0.1-0.1-0.1-0.1 0-0.1 0.1-0.1 0.2-0.1 -0.2-0.2 0.2-0.3-0.1-0.4 0.1 0 0.1-0.2 0.1-0.1 0.1 0-0.1-0.1-0.1-0.1 0.1 0 0.1-0.1 0.2-0.1 0-0.1-0.1-0.1-0.1-0.1 0-0.1 0.1-0.1 0.2-0.1 0-0.1-0.1-0.1-0.1-0.2 0.2 0 0-0.2 0-0.2 0 0 0.2-0.1 0-0.2 0.1 0 0.1-0.1 0.2-0.1 0-0.1-0.1-0.1-0.1-0.2 0.1 0 0.1-0.1 0.1-0.1 0-0.1-0.1-0.1-0.1-0.1 0.1 0 0.1-0.1 0.2-0.1 0-0.1-0.1-0.1-0.1-0.2 0.2-0.1 0.1-0.1 0-0.2 0.1 0 0.1-0.1 0.2-0.1 0-0.1-0.1-0.1-0.1-0.2 0.1 0 0.1-0.1 0.2-0.1 0-0.1-0.1-0.1-0.1-0.2 0.1 0 0.2-0.1 0-0.2 0.1 0 0.1-0.1 0.1-0.1 0-0.1-0.1-0.1-0.1-0.1 0.1 0 0.1-0.1 0.2-0.1 0-0.1-0.1 0-0.1-0.1 0.1 0 0-0.1 0.1-0.1 0-0.1-0.1-0.1-0.1-0.2 0.1 0 0-0.1 0.1-0.1 0-0.1-0.1-0.1-0.1-0.2 0.1 0.1 0.1-0.1 0.1-0.1 0-0.1-0.1-0.1-0.1-0.1 0-0.1 0.2 0 0.2-0.1 0-0.1-0.1 0-0.1-0.1 0.1 0 0.1-0.1 0.1-0.1 0-0.1 0-0.1-0.1-0.1 0.1 0 0-0.2 0.1-0.1 0-0.1-0.1-0.1-0.1-0.2 0.1 0 0.2-0.2 0-0.2 0.1-0.1 0.2-0.1 0.1-0.3 0.1 0 0.1-0.1 0.1-0.1 0-0.1 0-0.1-0.1-0.1 0-0.1 0.2 0 0.2-0.1 -0.2 0.2 0.1-0.2 0-0.3 0.1 0 0.1-0.1 0.1-0.1 0-0.1 0-0.1-0.1-0.1 0.1-0.1 0.1-0.2 0.1-0.3 0.1 0.1 0-0.1 0.1 0 0-0.2 0-0.4 0.2-0.5 -0.1-0.1 0-0.3 0.1-0.4 -0.1 0 0.1-0.1 0-0.2 0.1 0.1 0.1-0.1 0.1-0.2 0.1 0.1 0.1-0.1 0.1-0.2 0.1 0.1 0.1-0.1 0.1-0.2 0.1 0.1 0-0.1 0.1 0 0-0.1 0-0.1 0-0.2 0.1 0.1 0-0.1 0.1 0 -0.1-0.1-0.1-0.2 0.1-0.2 0 0 0-0.1-0.1-0.1 0.1-0.1 0-0.1 0.1-0.1 0 0 0-0.1-0.1-0.1 0.3-0.5 0.4-1.1 0.8-1.7 0 0 0 0-0.1 0 0.3-0.4 0.2-0.7 0.5-0.9 -0.1-0.1 0.1-0.5 0.3-0.5 -0.1-0.3 0.4-0.7 0.4-1 0-0.1 0.1 0 0.1-0.1 -0.1 0 0-0.3 0.1-0.3 0-0.3 0.3-0.4 0.2-0.6 0.1 0 0-0.1 0.1-0.1 0-0.2 0-0.3 0.1-0.3 0-0.1-0.1-0.3 0.1-0.3 0-0.1 0-0.3 0.1-0.2 0-0.2 0-0.3 0.1-0.3 -0.1 0 0-0.2 0-0.2 0-0.1 0.1-0.1 0.1 0 0-0.2 0.1-0.2 0-0.3 0 0 0.1 0 0.1 0 0-0.1-0.1-0.3 0.1-0.3 -0.1-0.1 0-0.1 0-0.2 0.1 0 0.1 0 0.1 0 -0.1-0.1 0-0.3 0.1-0.3 0-0.2 0-0.3 0.1-0.2 -0.1-0.1 0-0.2 0-0.3 0 0 0.1 0 0.1 0 -0.1-0.1 0-0.1 0-0.3 0.1 0 0.1 0 0.1 0 0-0.1-0.1-0.1 0-0.2 0.1 0 0.1 0 0.1-0.1 0.1 0 0.1 0 0.1 0 0-0.1-0.1-0.1 0-0.2 0.1 0 0.1-0.1 0-0.1 0-0.1 0.1 0 0.1 0 0-0.1 0-0.1-0.1-0.1 0.1-0.1 0-0.1 0.2-0.1 -0.1-0.1 0-0.1 0-0.1 0 0 0.1 0 0.1 0 0 0 0-0.1 0-0.1 0.1 0 0.1 0 0.1 0 0-0.1-0.1-0.1 0-0.2 0 0 0.1 0 0.1 0 0 0 0-0.1 0-0.1 0.1 0 0.1 0 0.1 0 0-0.1-0.1-0.1 0-0.2 0 0 0.1 0 0.1 0 0 0 0-0.1 0-0.1 0.1 0 0.1 0 0.1 0 0-0.1-0.1-0.1 0-0.2 0.1 0 0.1 0 0.1-0.1 0.1 0 0.1 0 0.1 0 0-0.1 0-0.1 0-0.1 0.1 0 0-0.2 0.2-0.1 0-0.1 0-0.3 0.1-0.2 0.1 0 0-0.1 0-0.2 0.1 0 0.1 0 0 0 0-0.1 0.1 0 0.1 0 0-0.1-0.1-0.1 0-0.2 0.1 0.1 0.1-0.2 0.2 0 0-0.1-0.1-0.1 0-0.2 0.1 0 0.1 0 0.1 0.1 0.1-0.1-0.1-0.2 0.1-0.1 -0.1-0.1 0.1-0.2 0-0.2 0-0.1 0.1 0 0.1 0 0-0.1-0.1-0.1 0-0.2 0.1 0 0.1 0 0.1 0.1 0.1 0 0-0.1 0-0.2 0.1 0 0.1 0 0.1 0 0 0 0-0.1 0-0.1 0.1 0 0-0.2 0.2-0.1 0-0.1-0.1-0.1 0-0.2 0.2 0 0-0.2 0.2 0 0-0.1-0.1-0.1 0-0.2 0.1 0 0 0.1 0.1 0.1 0.1 0 0-0.1 0-0.2 0.1 0 0.1 0 0.1 0 0-0.1 0-0.1 0-0.1 0.1 0 0.1-0.1 0.1-0.1 0 0 0.1 0.1 0.1 0.1 0-0.1-0.1-0.1 0-0.2 0.1 0 0.1 0 0.1 0.1 0.1 0 0-0.1 0-0.1 0.1-0.1 0 0 0.1 0 0 0 0-0.1 0-0.2 0.1 0 0.1 0 0.1-0.1 0.1 0 0.1 0 0.1 0 0-0.1 0-0.1 0.1-0.3 0 0 0.1 0 0.1 0 0.1 0-0.1-0.1 0-0.2 0.1 0 0 0.1 0.1 0.1 0.1 0 0-0.1 0-0.2 0.1 0 0.1 0 0.1 0 0-0.1 0-0.1 0-0.1 0.1 0 0.1 0 0.1-0.1 0 0 0.1 0.1 0.1 0.1 0 0 0-0.1 0-0.1 0.1 0 0.1-0.2 0.2-0.1 0-0.1-0.1-0.1 0-0.2 0.1 0 0.1 0.1 0.1 0.1 0.1 0 0-0.1 0-0.2 0 0 0.1 0.1 0.1 0.1 0.1-0.1-0.1-0.1 0-0.2 0.1 0 0 0.1 0.1 0.1 0.1 0 0-0.1 0-0.2 0.1 0 0.1 0 0.1 0 0.1 0-0.1-0.1 0-0.2 0.1 0 0 0.1 0.1 0.1 0.1 0 0-0.1 0-0.2 0.1 0 0.1 0 0.1 0 0-0.2 0-0.2 0.2-0.2 0.1-0.3 0.1-0.3 0.3-0.5 0-0.1 0-0.1 0-0.1 0.1 0 0.1 0 0.1 0 -0.1-0.1 0-0.1 0.1-0.1 0 0 0-0.1 0-0.1 0 0 0.1 0 0.1 0 0-0.1 0-0.1 0-0.1 0.1 0 0.1 0 0.1 0 0-0.1 0-0.3 0.2-0.3 0-0.1 0-0.1 0-0.1 0.1 0 0.1 0 0.1 0 -0.1-0.1 0.3-0.2 0.1-0.4 0.1 0 0.2 0 0.1-0.2 0.1 0 0.1 0 0.1 0 0-0.1 0-0.1 0.1-0.1 0-0.1 0-0.1 0-0.1 0.1 0.1 0 0 0.1 0 0-0.1 0-0.1 0-0.1 0.1 0.1 0 0 0.1 0 0-0.1 0-0.1 0-0.1 0.2-0.1 0.3-0.4 0.6-0.6 0 0 0-0.1 0-0.1 0.1 0.1 0 0 0.1 0 0-0.1 0-0.1 0-0.1 0.1 0.1 0.2-0.1 0.2-0.3 0.1 0.1 0 0 0.1 0 0-0.1 0.1-0.2 0.2-0.3 0 0 0-0.1 0-0.1 0.1 0 0.2-0.1 0.1-0.1 0.1 0 0.2 0 0.1-0.2 0.1 0.1 0.1 0 0.1-0.1 0.5-0.3 0.7-0.7 1.2-1.1 0.2-0.1 0.3-0.2 0.4-0.3 0.1 0 0.3-0.3 0.4-0.3 0 0 0.1 0 0.1-0.1 0.1 0.1 0.3-0.1 0.3-0.2 0.6-0.3 1.3-1 2-1.5 0 0 0.1 0 0.1 0 0.4-0.3 0.8-0.5 1.1-0.8 0.5-0.2 1-0.6 1.5-0.7 0 0 0-0.1 0-0.1 0 0 0 0 0 0.1 0 0 0-0.1 0-0.1 0.4 0 0.9-0.4 1.2-0.4 0.1-0.1 0 0 0.1-0.1 0 0 0.1 0 0.1 0.1 0 0 0-0.1 0-0.1 0 0 0 0 0 0.1 0 0 0-0.1 0-0.1 0.3 0.1 0.3-0.2 0.6-0.1 0 0 0-0.1 0-0.1 0 0 0.2-0.1 0.1 0 0.4-0.2 0.6-0.3 0.9-0.3 0-0.1 0 0 0.1-0.1 0.2 0.1 0.4 0 0.5-0.1 0.1 0.1 0.2 0.1 0.2 0 0.1 0.1 0.1 0.1 0.2 0 0 0 0.1 0.1 0.1 0.1 0-0.1 0.3 0 0.4-0.2 0.1 0 0 0.1 0.1 0.1 -0.1-0.1 0.1 0 0.1 0 0 0 0.1-0.1 0.1-0.1 0.9-0.3 2.1-0.8 3.3-0.8C307.7 97.2 308.2 97.3 308.6 97.1zM313.2 107.6c0-0.1 0.1-0.1 0-0.1 -0.2 0-0.4-0.1-0.6-0.2 -0.1 0-0.3 0-0.3-0.1 -0.2 0-0.5-0.1-0.5-0.2 -0.1 0-0.1 0.1-0.2 0 -0.1-0.2-0.5-0.1-0.5-0.2 -0.3 0-0.7-0.1-0.8-0.2 -0.1 0-0.3 0-0.4-0.1 -0.2 0.1-0.1-0.1-0.3 0 -0.3-0.2-0.5-0.1-0.8-0.1 -1.9 0.2-3.6 0.7-5.2 1.3 -1.7 0.6-3.2 1.4-4.6 2.3 -0.1 0.2-0.3 0.2-0.4 0.4 0 0-0.1 0.1-0.1 0 -0.2 0.2-0.2 0.3-0.5 0.4 -0.1 0.1-0.1 0.3-0.3 0.3 -0.1 0.2-0.1 0.2-0.3 0.3 0 0.1 0.1 0.1 0 0.1 -0.3 0-0.2 0.3-0.5 0.3 -0.1 0.1 0 0.1 0 0.1 -3.4 2.7-6.9 5.6-9.5 9 -0.5 0.6-0.8 1.4-1.1 2.1 -0.6 1.4-1.2 2.9-1.9 4.6 -1.1 2.7-2.3 5.6-2.6 8.8 -0.2 1.9-0.4 4.1-0.3 6.1 0.1 2.1 0.5 4.1 1.1 5.9 -0.9-5.5-0.3-12.4 0.9-17.2 0.1 0.4 0 0.8 0.1 1.2 0-3 1.3-5.2 2.7-7.5 1.7-2.8 3.4-4.9 5.5-6.9 0 0.1 0.1 0.1 0.1 0.2 -0.1 0-0.2 0-0.2 0.1 0 0 0.1 0.1 0.1 0.1 -0.1 0-0.1 0-0.2 0.1 0 0.1 0 0.1 0.1 0.1 -0.1 0-0.2 0.1-0.2 0.1 0 0 0.1 0.1 0.1 0.1 -0.1 0-0.1 0.1-0.2 0.1 0 0 0.1 0.1 0.1 0.1 -0.1 0-0.1 0.1-0.2 0.1 0 0 0.1 0.1 0.1 0.1 -0.1 0-0.1 0.1-0.2 0 0 0.1 0.1 0.1 0.1 0.2 -0.1-0.1-0.1 0-0.2 0 0 0.1 0.1 0.1 0.1 0.2 -0.1 0-0.1 0-0.2 0.1 0 0.1 0.2 0.1 0.1 0.2 -0.1-0.1-0.1 0-0.2 0 0 0.1 0.2 0.1 0.1 0.2 -0.1 0-0.2 0.1-0.2 0.1 0.1 0 0.1 0.1 0.1 0.1 -0.1 0-0.1 0-0.2 0.1 0 0 0.1 0.1 0.1 0.1 -0.1 0-0.1 0.1-0.2 0.1 0 0.1 0.1 0.1 0.1 0.2 -0.1 0-0.1 0.1-0.2 0.1 0 0 0.1 0.1 0.1 0.1 -0.1-0.1-0.1 0.1-0.2 0.1 0.1 0 0.1 0.1 0.1 0.1 -0.1 0-0.2 0.1-0.2 0.1 0 0 0.1 0.1 0.1 0.1 -0.1 0-0.1 0.1-0.2 0.1 0 0 0.1 0.1 0.1 0.1 -0.3 0-0.1 0.2-0.1 0.2 0 0-0.1 0.1-0.1 0.1 0 0.1 0.1 0.3-0.1 0.3 -0.1 0.4-0.2 0.8-0.4 1 0 0 0 0.1 0 0.2 -0.1 0-0.1 0.1-0.2 0.1 0 0 0.1 0.1 0.1 0.1 -0.1 0-0.1 0.1-0.2 0.1 0 0 0.1 0.1 0.1 0.1 -0.1 0-0.1 0.1-0.2 0.1 0.1 0 0 0.1 0.1 0.2 -0.3 0.2-0.1 0.5-0.4 0.6 0.1 0.1 0 0.4-0.2 0.5 0.2 0.1 0 0.2-0.1 0.3 0 0 0.1 0.1 0.1 0.1 0 0-0.1 0-0.1 0.1 0 0.1 0 0.2-0.1 0.2 0.2 0.1 0 0.2-0.1 0.3 0 0 0.1 0 0.1 0.1 -0.1 0.1-0.1 0.2-0.1 0.3 -0.2 0.1 0 0.3-0.2 0.4 0 0.3 0 0.5-0.2 0.8 0 0.2 0 0.3 0 0.4 -0.2 0.7-0.6 1.5-0.9 2.3 -0.2 0.7-0.5 1.5-0.7 2.2 -0.7 2.1-1.4 4.5-1.6 7 -0.2 2.3 0.7 3.4 1.7 4.7 -0.5-0.8-0.8-1.8-0.6-2.9 0.2-1.8 0.8-3.7 1.2-5.3 0 0.5-0.2 1 0 1.2 -0.2 0.9-0.7 1.9-0.6 3 0.1 0.8 0.2 1.4 0.3 2.1 0.3 1.7 1.2 3 2.1 4.3 0.7 1 1.6 2.4 2.7 3.4 1.1 1 2.4 1.7 3.6 2.5 0.7 0.4 1.3 0.8 2 1 0.7 0.3 1.4 0.7 2.1 0.9 0.8 0.3 2 0.4 2.8 0.4 0.9 0.1 1.7 0.2 2.5 0.3 0.7 0 1.6 0 2.4 0 3 0 5.1-0.2 7.4-0.8 0.2 0 0.5 0.3 0.7 0.3 0-0.2 0.1-0.2 0.2-0.1 0-0.1 0.1-0.2 0.2-0.1 0-0.1 0.1-0.2 0.2-0.1 0-0.1 0.1-0.2 0.2-0.1 0-0.2 0.2-0.2 0.2-0.2 0-0.1 0.4-0.3 0.5-0.3 0-0.1 0.2-0.2 0.2-0.1 0-0.1 0.2-0.3 0.2-0.1 0-0.1 0-0.1 0-0.1 0.2 0 0.2 0 0.2 0 -0.1-0.1 0.1-0.1 0.2-0.2 0 0 0 0 0 0.1 0.1-0.1 0.2-0.1 0.2-0.2 0.1 0.2 0.1-0.3 0.3-0.1 0 0 0-0.1 0.1-0.1 2.3-0.9 4.4-2.1 5.3-4.2 0 0 0 0 0 0.1 0.2 0-0.1-0.1 0.1-0.2 0.1 0 0.1 0.1 0.1 0.1 -0.1-0.2 0-0.1 0.1-0.3 0 0 0 0.1 0.1 0.1 0-0.1-0.1-0.1 0-0.2 0.2 0 0-0.1 0.1-0.1 0 0 0.1 0.1 0.1 0 -0.1 0-0.1-0.2 0-0.1 0 0.1 0 0.1 0.1 0.1 0-0.1-0.1-0.1 0-0.2 0.2 0.1 0.1 0 0.1-0.1 0 0 0.1 0.2 0.1 0 -0.1 0 0-0.1 0-0.1 0.1 0 0 0.1 0.1 0.1 0-0.1-0.1-0.2 0-0.2 0.1 0.1-0.1 0.1 0.1 0.1 0-0.1-0.1-0.1 0-0.2 0.1 0 0.1 0.1 0.1 0.1 0-0.1-0.1-0.1 0-0.2 0.1 0.1 0.1-0.1 0.1-0.1 0 0 0.1 0.1 0.1 0 -0.2-0.1 0-0.2 0.1-0.2 0 0 0 0.1 0.1 0.1 -0.1-0.1 0.1-0.4 0.2-0.2 0-0.1-0.1-0.1 0-0.2 0.1-0.1 0.1-0.1 0.2-0.1 -0.1 0 0-0.1-0.1-0.1 0.1 0.1 0.1-0.1 0.1-0.1 0 0 0.1 0.1 0.1 0 -0.1 0 0-0.1-0.1-0.1 0.1 0.1 0.1-0.1 0.1-0.1 0 0 0 0.1 0.1 0.1 0-0.1-0.1-0.2 0-0.2 0.1 0.1-0.1 0.1 0.1 0.1 0-0.1-0.1-0.1 0-0.2 0.1 0 0.1 0.1 0.1 0 -0.1 0-0.1-0.1 0-0.1 0.1 0.1-0.1 0.1 0.1 0.1 0-0.1-0.1-0.1 0-0.2 0.1 0 0.1 0.1 0.1 0 -0.1-0.2 0.1-0.2 0.2-0.2 -0.2-0.1 0.1-0.1 0-0.2 0.1 0 0.1 0.1 0.1 0.1 0.1-0.1-0.1-0.2 0-0.2 0 0.1 0 0.1 0.1 0.1 0-0.1-0.1-0.1 0-0.2 0 0 0.1 0 0.1 0 0-0.2 0.1-0.3 0.2-0.2 -0.1-0.2 0.1-0.3 0.2-0.3 -0.1-0.1 0.1-0.3 0.1-0.2 0-0.1-0.1-0.1 0-0.2 0.1 0.1 0-0.2 0.2-0.1 -0.1-0.2 0.1-0.2 0.2-0.2 -0.1 0-0.1-0.1 0-0.1 0 0 0 0.1 0.1 0.1 0-0.1 0-0.2 0.1-0.1 -0.1-0.1 0-0.3 0.1-0.2 0-0.1-0.1-0.1 0-0.2 0.2 0 0-0.2 0.2-0.1 0-0.2 0-0.2 0.2-0.3 0 0 0-0.1-0.1-0.1 0.2 0 0-0.2 0.2-0.1 0-0.1-0.1-0.1-0.1-0.2 0.1 0 0.1-0.2 0.2-0.1 0-0.1 0-0.3 0.1-0.2 -0.1-0.1 0-0.3 0.1-0.3 -0.1 0 0-0.3 0.1-0.2 0-0.1 0-0.3 0.1-0.2 0-0.3 0.2-0.5 0.2-0.7 0-0.1-0.1-0.1-0.1-0.2 0.1 0 0.1-0.1 0.1-0.1 -0.1 0-0.1-0.1-0.1-0.2 0.1 0 0.1-0.1 0.1-0.1 0-0.1-0.1-0.1-0.1-0.2 0.1 0 0.1-0.1 0.2-0.1 -0.1 0-0.1-0.1-0.2-0.2 0.1 0 0.1-0.1 0.2-0.1 -0.1 0-0.1-0.1-0.2-0.2 0.1 0 0.1-0.1 0.2-0.1 -0.1 0-0.2-0.1-0.2-0.2 0.1 0 0.1 0 0.2-0.1 -0.1 0-0.1-0.1-0.1-0.1 0.2-0.1 0.2-0.2 0.1-0.3 0.1 0 0.1-0.2 0.1-0.1 0-0.1-0.1-0.1-0.1-0.2 0.1 0 0.1-0.1 0.2-0.1 0-0.1-0.2-0.1-0.1-0.2 0.1 0 0-0.1 0.1-0.1 0-0.1-0.1-0.1-0.1-0.2 0.2 0 0.1-0.2 0.1-0.3 0.2 0 0.1-0.2 0.1-0.3 0.1 0 0-0.1 0.1-0.1 0-0.1-0.1-0.1-0.1-0.2 0.1 0 0.1-0.2 0.2-0.1 0-0.1-0.1-0.1-0.1-0.2 0.1 0 0.1-0.1 0.2-0.1 -0.1 0-0.1-0.1-0.1-0.1 0.1 0 0.1-0.1 0.2-0.1 -0.1 0-0.2-0.1-0.1-0.2 0.1 0.1 0.1-0.1 0.1-0.1 0-0.1-0.1-0.1-0.1-0.2 0.1 0 0.1-0.1 0.2-0.1 -0.1 0-0.1-0.1-0.1-0.1 0.1 0 0.1-0.1 0.2-0.1 -0.1 0-0.1-0.1-0.1-0.1 0.2 0 0.1-0.1 0.2-0.1 -0.1 0-0.1-0.1-0.1-0.1 0.2 0 0-0.2 0.1-0.1 0-0.1-0.1-0.1-0.1-0.2 0.2 0 0-0.2 0.1-0.1 0-0.1-0.1-0.1-0.1-0.2 0.2 0 0-0.2 0.1-0.1 0-0.1-0.1-0.1-0.1-0.2 0.1 0 0.1-0.1 0.2-0.1 -0.1 0-0.1-0.1-0.1-0.2 0.2 0 0.1-0.1 0.2-0.1 -0.1 0-0.1-0.1-0.1-0.2 0.1 0 0.1-0.1 0.2-0.1 -0.1 0-0.1-0.1-0.2-0.1 0.1 0 0.2-0.1 0.2-0.1 -0.1 0-0.1-0.1-0.1-0.2 0.1 0.1 0.1-0.1 0.2-0.1 0.1 2.3 0.3 4.6 0.5 6.7 0-2 0.8-3.4 1-5.4 0.1-1.4 0.2-3.1 0-4.6 -0.3-3-1.4-5.5-2.4-7.9 -0.4-1-0.9-2-1.5-2.9 -0.6-1.1-1.5-2.1-2.1-3.2 0-0.1 0-0.2-0.1-0.2 -0.2-0.3-0.4-0.6-0.6-1 0 0.1-0.1 0-0.1 0 0-0.3-0.3-0.4-0.3-0.7 0 0.1-0.1 0-0.1 0 0.1-0.1-0.1-0.1 0-0.2 -0.2 0.1-0.1-0.1-0.2-0.2 -0.1 0-0.2-0.3-0.3-0.5 -0.1 0-0.1-0.1-0.2-0.2 0 0-0.2-0.1-0.1-0.2 -0.1 0-0.1 0-0.1 0 0-0.1-0.1-0.1-0.1-0.2 -0.1 0.1-0.2-0.1-0.2-0.2 -0.2 0-0.2-0.1-0.4-0.4 -0.1 0-0.2 0-0.2-0.1 0 0 0-0.1 0-0.1 -1-1.8-2.6-4.1-4.3-5.6 -0.9-0.8-2-1.8-3.2-2.1 -0.4-0.1-0.9 0-1.1 0.1 0 0.1-0.1 0.1 0 0.2 0.3 0.3 0.6 0.3 0.9 0.4 0.3 0.2 0.5 0.4 0.8 0.6 1.3 1 2.4 2.1 3.3 3.3 -0.3-0.4-1.1-0.4-1.1-0.9 -0.6 0.6 0.4 1.1 0.6 1.6 -0.1 0-0.2 0-0.2-0.2 0 0.1-0.1 0-0.2 0 0-0.1 0-0.1 0-0.1 0 0.1-0.1 0-0.2 0 0 0 0-0.1 0-0.1 -0.1 0-0.1 0-0.2 0 0 0 0-0.1 0-0.1 -0.1 0-0.1 0-0.2 0 0.1-0.1 0 0 0-0.1 -0.1 0-0.1 0-0.2 0 0-0.1 0-0.2-0.1-0.2 0 0.1-0.2 0.1-0.2-0.1 -0.1 0-0.1 0-0.2 0 0 0 0-0.1 0-0.1 0 0.1-0.2 0.1-0.2-0.1 -0.1 0-0.1 0-0.2 0 0-0.1-0.1-0.1 0-0.1 -0.1 0-0.1 0-0.2 0 0 0 0-0.1 0-0.1 -0.1 0-0.1 0.1-0.2 0 0-0.2-0.1-0.1-0.2-0.1 0 0 0-0.1 0-0.1 -0.1 0-0.2 0-0.3-0.1 0 0.1-0.1 0-0.2 0 0-0.2-0.4-0.1-0.4-0.3 -0.1 0-0.1 0.1-0.2 0 0 0 0-0.1 0-0.1 -0.1 0-0.1 0.1-0.2 0 0-0.2-0.2-0.1-0.2-0.2 -0.1 0.1-0.2 0-0.2-0.1C313.4 107.7 313.4 107.5 313.2 107.6zM331.2 123.5c0.6 2.3 1.1 5.4 1 8.1 0.1 0 0.1-0.2 0.1 0 0 0.6 0 1.3 0.1 1.9 0 0.7 0 1.4 0 2.2 0 3.6-0.3 7-1 9.8 -0.1 0.6-0.3 1.2-0.5 1.7 -0.3 0.6-0.8 1.2-1.2 1.8 -1.2 1.8-2.7 3.5-4.1 5 -2 2.2-4 4.2-6 6.2 2.7-1.9 5.2-3.9 7.6-6.2 4.6-4.6 7.9-10.5 8.3-19.3 0.2-4.5-0.7-8.5-1.7-12 1.8 6.7 1 16-1.4 21.3 1.4-8.2 0.7-18.5-2.4-24.2 -0.4-0.7-0.8-1.3-1.2-1.9 -0.1-0.2-0.2-0.5-0.4-0.6C329.6 119.2 330.6 121.2 331.2 123.5zM340.3 131.8c0 0 0-0.1 0-0.1C340.1 131.6 340.1 131.8 340.3 131.8zM290.6 155.6c2 3.2 4.8 5.5 8.4 6.9 4.2 1.5 10.8 1.9 15.2 0.4 -2.7 0.2-5.4 0-7.9-0.2 -2.6-0.2-5-0.5-7-1.3 -2.1-0.8-3.8-1.7-5.4-3 -1.5-1.3-2.8-2.7-3.8-4.4C289.8 154.2 290.3 155.2 290.6 155.6z" class="b"/>
    <path style="fill: #FFF" d="M290.2 102.3c-3.5 3.9-5.7 9.1-8.1 14.2 -0.8 1.7-1.6 3.4-2.2 5.2 1.1-3.8 2-7.8 3.8-11C285.6 107.5 287.4 104.5 290.2 102.3z" class="b"/>
    <path style="fill: #FFF" d="M329.5 133.2c0.1 0.1 0.1 0 0.1-0.1 0.1 0.2 0 0.3 0 0.5 -0.1 0-0.1-0.1-0.2-0.1C329.7 133.4 329.6 133.4 329.5 133.2z" class="b"/>
    <path style="fill: #FFF" d="M339.9 145.9c0.2-0.1 0.2 0.3 0.2 0.4 0.1 0.7-0.3 1.7-0.6 2.3 -0.8 2.1-1.9 3.9-3.2 5.4 -1.9 2.1-4.1 3.8-6 5.5 2.8-2.9 5.4-6.2 7.7-9.7 0.4-0.6 0.8-1.2 1.1-1.8C339.4 147.2 339.8 146.6 339.9 145.9z" class="b"/>
    <path style="fill: #FFF" d="M469.9 151c-0.2 0-0.2 0.1-0.3 0.1C469.5 151.1 469.9 150.8 469.9 151z" class="b"/>
</svg>
